# MagicaVoxel @ Ephtracy

# group
g StoreDecor_BambooBar

# material
mtllib StoreDecor_BambooBar.mtl
usemtl palette

# normals
vn -1 0 0
vn 1 0 0
vn 0 0 1
vn 0 0 -1
vn 0 -1 0
vn 0 1 0

# texcoords
vt 0.955078 0.5
vt 0.962891 0.5

# verts
v -16 0 5
v -16 0 4
v -16 0 3
v -16 0 2
v -16 0 1
v -16 0 -0
v -16 0 -1
v -16 0 -2
v -16 0 -3
v -16 0 -4
v -16 0 -5
v -16 15 5
v -16 15 4
v -16 15 3
v -16 15 2
v -16 15 1
v -16 15 -0
v -16 15 -1
v -16 15 -2
v -16 15 -3
v -16 15 -4
v -16 16 5
v -16 16 -5
v 14 0 5
v 14 0 4
v 14 0 -4
v 14 0 -5
v 14 1 -1
v 14 1 -2
v 14 1 -3
v 14 1 -4
v 14 2 -1
v 14 2 -2
v 14 2 -3
v 14 2 -4
v 14 5 -4
v 14 5 -5
v 14 6 -4
v 14 6 -5
v 14 7 -4
v 14 7 -5
v 14 10 -4
v 14 10 -5
v 14 11 -4
v 14 11 -5
v 14 12 -4
v 14 12 -5
v 14 15 5
v 14 15 4
v 14 15 -4
v 14 15 -5
v 15 0 4
v 15 0 3
v 15 0 2
v 15 0 1
v 15 0 -0
v 15 0 -1
v 15 0 -2
v 15 0 -3
v 15 0 -4
v 15 1 -1
v 15 1 -2
v 15 1 -3
v 15 1 -4
v 15 2 -1
v 15 2 -2
v 15 2 -3
v 15 2 -4
v 15 5 -4
v 15 6 -4
v 15 7 -4
v 15 8 -4
v 15 9 -4
v 15 10 -4
v 15 11 -4
v 15 12 -4
v 15 15 4
v 15 15 3
v 15 15 2
v 15 15 1
v 15 15 -0
v 15 15 -1
v 15 15 -2
v 15 15 -3
v 15 15 -4
v -15 0 4
v -15 0 3
v -15 0 2
v -15 0 1
v -15 0 -0
v -15 0 -1
v -15 0 -2
v -15 0 -3
v -15 0 -4
v -15 1 -1
v -15 1 -2
v -15 1 -3
v -15 1 -4
v -15 2 -1
v -15 2 -2
v -15 2 -3
v -15 2 -4
v -15 5 -4
v -15 6 -4
v -15 7 -4
v -15 8 -4
v -15 9 -4
v -15 10 -4
v -15 11 -4
v -15 12 -4
v -15 15 4
v -15 15 3
v -15 15 2
v -15 15 1
v -15 15 -0
v -15 15 -1
v -15 15 -2
v -15 15 -3
v -15 15 -4
v -14 0 5
v -14 0 4
v -14 0 -4
v -14 0 -5
v -14 1 -1
v -14 1 -2
v -14 1 -3
v -14 1 -4
v -14 2 -1
v -14 2 -2
v -14 2 -3
v -14 2 -4
v -14 5 -4
v -14 5 -5
v -14 6 -4
v -14 6 -5
v -14 7 -4
v -14 7 -5
v -14 10 -4
v -14 10 -5
v -14 11 -4
v -14 11 -5
v -14 12 -4
v -14 12 -5
v -14 15 5
v -14 15 4
v -14 15 -4
v -14 15 -5
v 16 0 5
v 16 0 4
v 16 0 3
v 16 0 2
v 16 0 1
v 16 0 -0
v 16 0 -1
v 16 0 -2
v 16 0 -3
v 16 0 -4
v 16 0 -5
v 16 15 5
v 16 15 4
v 16 15 3
v 16 15 2
v 16 15 1
v 16 15 -0
v 16 15 -1
v 16 15 -2
v 16 15 -3
v 16 15 -4
v 16 16 5
v 16 16 -5
v -16 0 5
v -16 15 5
v -16 16 5
v -15 0 5
v -15 15 5
v -14 0 5
v -14 15 5
v 14 0 5
v 14 15 5
v 15 0 5
v 15 15 5
v 16 0 5
v 16 15 5
v 16 16 5
v -15 1 -1
v -15 2 -1
v -14 1 -1
v -14 2 -1
v 14 1 -1
v 14 2 -1
v 15 1 -1
v 15 2 -1
v -14 1 -2
v -14 2 -2
v 14 1 -2
v 14 2 -2
v -15 0 -4
v -15 1 -4
v -15 2 -4
v -15 5 -4
v -15 6 -4
v -15 7 -4
v -15 8 -4
v -15 9 -4
v -15 10 -4
v -15 11 -4
v -15 12 -4
v -15 15 -4
v -14 0 -4
v -14 1 -4
v -14 2 -4
v -14 5 -4
v -14 6 -4
v -14 7 -4
v -14 10 -4
v -14 11 -4
v -14 12 -4
v -14 15 -4
v 14 0 -4
v 14 1 -4
v 14 2 -4
v 14 5 -4
v 14 6 -4
v 14 7 -4
v 14 10 -4
v 14 11 -4
v 14 12 -4
v 14 15 -4
v 15 0 -4
v 15 1 -4
v 15 2 -4
v 15 5 -4
v 15 6 -4
v 15 7 -4
v 15 8 -4
v 15 9 -4
v 15 10 -4
v 15 11 -4
v 15 12 -4
v 15 15 -4
v -15 0 4
v -15 15 4
v -14 0 4
v -14 15 4
v 14 0 4
v 14 15 4
v 15 0 4
v 15 15 4
v -14 1 -3
v -14 2 -3
v 14 1 -3
v 14 2 -3
v -16 0 -5
v -16 16 -5
v -15 0 -5
v -15 5 -5
v -15 6 -5
v -15 7 -5
v -15 8 -5
v -15 9 -5
v -15 10 -5
v -15 11 -5
v -15 12 -5
v -15 16 -5
v -14 0 -5
v -14 5 -5
v -14 6 -5
v -14 7 -5
v -14 10 -5
v -14 11 -5
v -14 12 -5
v -14 15 -5
v 14 0 -5
v 14 5 -5
v 14 6 -5
v 14 7 -5
v 14 10 -5
v 14 11 -5
v 14 12 -5
v 14 15 -5
v 15 0 -5
v 15 5 -5
v 15 6 -5
v 15 7 -5
v 15 8 -5
v 15 9 -5
v 15 10 -5
v 15 11 -5
v 15 12 -5
v 15 16 -5
v 16 0 -5
v 16 16 -5
v -16 0 5
v -15 0 5
v -14 0 5
v 14 0 5
v 15 0 5
v 16 0 5
v -16 0 4
v -15 0 4
v -14 0 4
v 14 0 4
v 15 0 4
v 16 0 4
v -16 0 3
v -15 0 3
v 15 0 3
v 16 0 3
v -16 0 2
v -15 0 2
v 15 0 2
v 16 0 2
v -16 0 1
v -15 0 1
v 15 0 1
v 16 0 1
v -16 0 -0
v -15 0 -0
v 15 0 -0
v 16 0 -0
v -16 0 -1
v -15 0 -1
v 15 0 -1
v 16 0 -1
v -16 0 -2
v -15 0 -2
v 15 0 -2
v 16 0 -2
v -16 0 -3
v -15 0 -3
v 15 0 -3
v 16 0 -3
v -16 0 -4
v -15 0 -4
v -14 0 -4
v 14 0 -4
v 15 0 -4
v 16 0 -4
v -16 0 -5
v -15 0 -5
v -14 0 -5
v 14 0 -5
v 15 0 -5
v 16 0 -5
v -15 1 -1
v -14 1 -1
v 14 1 -1
v 15 1 -1
v -15 1 -2
v -14 1 -2
v 14 1 -2
v 15 1 -2
v -15 1 -3
v -14 1 -3
v 14 1 -3
v 15 1 -3
v -15 1 -4
v -14 1 -4
v 14 1 -4
v 15 1 -4
v -14 7 -4
v 14 7 -4
v -14 7 -5
v 14 7 -5
v -14 15 5
v 14 15 5
v -15 15 4
v -14 15 4
v 14 15 4
v 15 15 4
v -15 15 3
v 15 15 3
v -15 15 2
v 15 15 2
v -15 15 1
v 15 15 1
v -15 15 -0
v 15 15 -0
v -15 15 -1
v 15 15 -1
v -15 15 -2
v 15 15 -2
v -15 15 -3
v 15 15 -3
v -15 15 -4
v -14 15 -4
v 14 15 -4
v 15 15 -4
v -14 15 -5
v 14 15 -5
v -15 2 -1
v -14 2 -1
v 14 2 -1
v 15 2 -1
v -15 2 -2
v -14 2 -2
v 14 2 -2
v 15 2 -2
v -15 2 -3
v -14 2 -3
v 14 2 -3
v 15 2 -3
v -15 2 -4
v -14 2 -4
v 14 2 -4
v 15 2 -4
v -14 10 -4
v 14 10 -4
v -14 10 -5
v 14 10 -5
v -16 16 5
v 16 16 5
v -15 16 4
v 15 16 4
v -15 16 3
v 15 16 3
v -15 16 2
v 15 16 2
v -15 16 1
v 15 16 1
v -15 16 -0
v 15 16 -0
v -15 16 -1
v 15 16 -1
v -15 16 -2
v 15 16 -2
v -15 16 -3
v 15 16 -3
v -15 16 -4
v 15 16 -4
v -16 16 -5
v -15 16 -5
v 15 16 -5
v 16 16 -5

# faces
f 12/1/1 2/1/1 1/1/1
f 13/2/1 3/2/1 2/2/1
f 13/1/1 2/1/1 12/1/1
f 14/1/1 4/1/1 3/1/1
f 14/2/1 3/2/1 13/2/1
f 15/2/1 5/2/1 4/2/1
f 15/1/1 4/1/1 14/1/1
f 16/1/1 6/1/1 5/1/1
f 16/2/1 5/2/1 15/2/1
f 17/2/1 7/2/1 6/2/1
f 17/1/1 6/1/1 16/1/1
f 18/1/1 8/1/1 7/1/1
f 18/2/1 7/2/1 17/2/1
f 19/2/1 9/2/1 8/2/1
f 19/1/1 8/1/1 18/1/1
f 20/1/1 10/1/1 9/1/1
f 20/2/1 9/2/1 19/2/1
f 21/2/1 11/2/1 10/2/1
f 21/1/1 10/1/1 20/1/1
f 22/2/1 20/2/1 19/2/1
f 22/2/1 13/2/1 12/2/1
f 22/2/1 21/2/1 20/2/1
f 22/2/1 19/2/1 18/2/1
f 22/2/1 18/2/1 17/2/1
f 22/2/1 17/2/1 16/2/1
f 22/2/1 16/2/1 15/2/1
f 22/2/1 15/2/1 14/2/1
f 22/2/1 14/2/1 13/2/1
f 23/2/1 11/2/1 21/2/1
f 23/2/1 21/2/1 22/2/1
f 31/1/1 27/1/1 26/1/1
f 32/1/1 29/1/1 28/1/1
f 33/1/1 29/1/1 32/1/1
f 34/1/1 31/1/1 30/1/1
f 35/1/1 27/1/1 31/1/1
f 35/1/1 31/1/1 34/1/1
f 36/1/1 27/1/1 35/1/1
f 37/1/1 27/1/1 36/1/1
f 38/2/1 37/2/1 36/2/1
f 39/2/1 37/2/1 38/2/1
f 40/1/1 39/1/1 38/1/1
f 41/1/1 39/1/1 40/1/1
f 44/1/1 43/1/1 42/1/1
f 45/1/1 43/1/1 44/1/1
f 46/2/1 45/2/1 44/2/1
f 47/2/1 45/2/1 46/2/1
f 48/2/1 25/2/1 24/2/1
f 49/2/1 25/2/1 48/2/1
f 50/1/1 47/1/1 46/1/1
f 51/1/1 47/1/1 50/1/1
f 61/2/1 57/2/1 56/2/1
f 61/1/1 58/1/1 57/1/1
f 62/2/1 59/2/1 58/2/1
f 62/1/1 58/1/1 61/1/1
f 63/1/1 60/1/1 59/1/1
f 63/2/1 59/2/1 62/2/1
f 64/1/1 60/1/1 63/1/1
f 65/2/1 61/2/1 56/2/1
f 69/1/1 68/1/1 67/1/1
f 70/1/1 69/1/1 67/1/1
f 71/1/1 70/1/1 67/1/1
f 72/1/1 71/1/1 67/1/1
f 73/1/1 72/1/1 67/1/1
f 74/1/1 73/1/1 67/1/1
f 75/1/1 74/1/1 67/1/1
f 76/1/1 75/1/1 67/1/1
f 77/2/1 53/2/1 52/2/1
f 78/1/1 54/1/1 53/1/1
f 78/2/1 53/2/1 77/2/1
f 79/2/1 55/2/1 54/2/1
f 79/1/1 54/1/1 78/1/1
f 80/1/1 56/1/1 55/1/1
f 80/2/1 55/2/1 79/2/1
f 81/2/1 65/2/1 56/2/1
f 81/1/1 56/1/1 80/1/1
f 82/1/1 66/1/1 65/1/1
f 82/2/1 65/2/1 81/2/1
f 83/2/1 67/2/1 66/2/1
f 83/1/1 66/1/1 82/1/1
f 84/1/1 76/1/1 67/1/1
f 84/2/1 67/2/1 83/2/1
f 85/1/1 76/1/1 84/1/1
f 90/2/2 91/2/2 95/2/2
f 91/1/2 92/1/2 95/1/2
f 92/2/2 93/2/2 96/2/2
f 95/1/2 92/1/2 96/1/2
f 93/1/2 94/1/2 97/1/2
f 96/2/2 93/2/2 97/2/2
f 97/1/2 94/1/2 98/1/2
f 90/2/2 95/2/2 99/2/2
f 101/1/2 102/1/2 103/1/2
f 101/1/2 103/1/2 104/1/2
f 101/1/2 104/1/2 105/1/2
f 101/1/2 105/1/2 106/1/2
f 101/1/2 106/1/2 107/1/2
f 101/1/2 107/1/2 108/1/2
f 101/1/2 108/1/2 109/1/2
f 101/1/2 109/1/2 110/1/2
f 86/2/2 87/2/2 111/2/2
f 87/1/2 88/1/2 112/1/2
f 111/2/2 87/2/2 112/2/2
f 88/2/2 89/2/2 113/2/2
f 112/1/2 88/1/2 113/1/2
f 89/1/2 90/1/2 114/1/2
f 113/2/2 89/2/2 114/2/2
f 90/2/2 99/2/2 115/2/2
f 114/1/2 90/1/2 115/1/2
f 99/1/2 100/1/2 116/1/2
f 115/2/2 99/2/2 116/2/2
f 100/2/2 101/2/2 117/2/2
f 116/1/2 100/1/2 117/1/2
f 101/1/2 110/1/2 118/1/2
f 117/2/2 101/2/2 118/2/2
f 118/1/2 110/1/2 119/1/2
f 122/1/2 123/1/2 127/1/2
f 124/1/2 125/1/2 128/1/2
f 128/1/2 125/1/2 129/1/2
f 126/1/2 127/1/2 130/1/2
f 127/1/2 123/1/2 131/1/2
f 130/1/2 127/1/2 131/1/2
f 131/1/2 123/1/2 132/1/2
f 132/1/2 123/1/2 133/1/2
f 132/2/2 133/2/2 134/2/2
f 134/2/2 133/2/2 135/2/2
f 134/1/2 135/1/2 136/1/2
f 136/1/2 135/1/2 137/1/2
f 138/1/2 139/1/2 140/1/2
f 140/1/2 139/1/2 141/1/2
f 140/2/2 141/2/2 142/2/2
f 142/2/2 141/2/2 143/2/2
f 120/2/2 121/2/2 144/2/2
f 144/2/2 121/2/2 145/2/2
f 142/1/2 143/1/2 146/1/2
f 146/1/2 143/1/2 147/1/2
f 148/1/2 149/1/2 159/1/2
f 149/2/2 150/2/2 160/2/2
f 159/1/2 149/1/2 160/1/2
f 150/1/2 151/1/2 161/1/2
f 160/2/2 150/2/2 161/2/2
f 151/2/2 152/2/2 162/2/2
f 161/1/2 151/1/2 162/1/2
f 152/1/2 153/1/2 163/1/2
f 162/2/2 152/2/2 163/2/2
f 153/2/2 154/2/2 164/2/2
f 163/1/2 153/1/2 164/1/2
f 154/1/2 155/1/2 165/1/2
f 164/2/2 154/2/2 165/2/2
f 155/2/2 156/2/2 166/2/2
f 165/1/2 155/1/2 166/1/2
f 156/1/2 157/1/2 167/1/2
f 166/2/2 156/2/2 167/2/2
f 157/2/2 158/2/2 168/2/2
f 167/1/2 157/1/2 168/1/2
f 166/2/2 167/2/2 169/2/2
f 159/2/2 160/2/2 169/2/2
f 167/2/2 168/2/2 169/2/2
f 165/2/2 166/2/2 169/2/2
f 164/2/2 165/2/2 169/2/2
f 163/2/2 164/2/2 169/2/2
f 162/2/2 163/2/2 169/2/2
f 161/2/2 162/2/2 169/2/2
f 160/2/2 161/2/2 169/2/2
f 168/2/2 158/2/2 170/2/2
f 169/2/2 168/2/2 170/2/2
f 174/1/3 172/1/3 171/1/3
f 175/2/3 173/2/3 172/2/3
f 175/1/3 172/1/3 174/1/3
f 176/2/3 175/2/3 174/2/3
f 177/2/3 173/2/3 175/2/3
f 177/2/3 175/2/3 176/2/3
f 179/2/3 173/2/3 177/2/3
f 180/2/3 179/2/3 178/2/3
f 181/2/3 173/2/3 179/2/3
f 181/2/3 179/2/3 180/2/3
f 182/1/3 181/1/3 180/1/3
f 183/2/3 173/2/3 181/2/3
f 183/1/3 181/1/3 182/1/3
f 184/2/3 173/2/3 183/2/3
f 187/1/3 186/1/3 185/1/3
f 188/1/3 186/1/3 187/1/3
f 191/1/3 190/1/3 189/1/3
f 192/1/3 190/1/3 191/1/3
f 195/2/3 194/2/3 193/2/3
f 196/2/3 194/2/3 195/2/3
f 209/1/3 198/1/3 197/1/3
f 210/1/3 198/1/3 209/1/3
f 211/1/3 200/1/3 199/1/3
f 212/2/3 201/2/3 200/2/3
f 212/1/3 200/1/3 211/1/3
f 213/1/3 202/1/3 201/1/3
f 213/2/3 201/2/3 212/2/3
f 214/2/3 203/2/3 202/2/3
f 214/1/3 202/1/3 213/1/3
f 215/2/3 205/2/3 204/2/3
f 215/1/3 206/1/3 205/1/3
f 216/2/3 207/2/3 206/2/3
f 216/1/3 206/1/3 215/1/3
f 217/1/3 208/1/3 207/1/3
f 217/2/3 207/2/3 216/2/3
f 218/1/3 208/1/3 217/1/3
f 224/2/3 203/2/3 214/2/3
f 225/2/3 215/2/3 204/2/3
f 229/1/3 220/1/3 219/1/3
f 230/1/3 220/1/3 229/1/3
f 231/1/3 222/1/3 221/1/3
f 232/2/3 223/2/3 222/2/3
f 232/1/3 222/1/3 231/1/3
f 233/1/3 224/1/3 223/1/3
f 233/2/3 223/2/3 232/2/3
f 234/2/3 203/2/3 224/2/3
f 234/1/3 224/1/3 233/1/3
f 235/1/3 204/1/3 203/1/3
f 235/2/3 203/2/3 234/2/3
f 236/2/3 225/2/3 204/2/3
f 236/1/3 204/1/3 235/1/3
f 237/1/3 226/1/3 225/1/3
f 237/2/3 225/2/3 236/2/3
f 238/2/3 227/2/3 226/2/3
f 238/1/3 226/1/3 237/1/3
f 239/1/3 228/1/3 227/1/3
f 239/2/3 227/2/3 238/2/3
f 240/1/3 228/1/3 239/1/3
f 241/2/4 242/2/4 243/2/4
f 243/2/4 242/2/4 244/2/4
f 245/2/4 246/2/4 247/2/4
f 247/2/4 246/2/4 248/2/4
f 249/2/4 250/2/4 251/2/4
f 251/2/4 250/2/4 252/2/4
f 253/2/4 254/2/4 255/2/4
f 255/2/4 254/2/4 256/2/4
f 256/2/4 254/2/4 257/2/4
f 257/2/4 254/2/4 258/2/4
f 258/2/4 254/2/4 259/2/4
f 259/2/4 254/2/4 260/2/4
f 260/2/4 254/2/4 261/2/4
f 261/2/4 254/2/4 262/2/4
f 262/2/4 254/2/4 263/2/4
f 263/2/4 254/2/4 264/2/4
f 255/1/4 256/1/4 265/1/4
f 256/2/4 257/2/4 266/2/4
f 265/1/4 256/1/4 266/1/4
f 257/1/4 258/1/4 267/1/4
f 266/2/4 257/2/4 267/2/4
f 258/2/4 259/2/4 268/2/4
f 267/1/4 258/1/4 268/1/4
f 260/2/4 261/2/4 269/2/4
f 261/1/4 262/1/4 269/1/4
f 262/2/4 263/2/4 270/2/4
f 269/1/4 262/1/4 270/1/4
f 263/1/4 264/1/4 271/1/4
f 270/2/4 263/2/4 271/2/4
f 271/1/4 264/1/4 272/1/4
f 268/2/4 259/2/4 276/2/4
f 260/2/4 269/2/4 277/2/4
f 272/1/4 264/1/4 280/1/4
f 273/1/4 274/1/4 281/1/4
f 274/2/4 275/2/4 282/2/4
f 281/1/4 274/1/4 282/1/4
f 275/1/4 276/1/4 283/1/4
f 282/2/4 275/2/4 283/2/4
f 276/2/4 259/2/4 284/2/4
f 283/1/4 276/1/4 284/1/4
f 259/1/4 260/1/4 285/1/4
f 284/2/4 259/2/4 285/2/4
f 260/2/4 277/2/4 286/2/4
f 285/1/4 260/1/4 286/1/4
f 277/1/4 278/1/4 287/1/4
f 286/2/4 277/2/4 287/2/4
f 278/2/4 279/2/4 288/2/4
f 287/1/4 278/1/4 288/1/4
f 279/1/4 280/1/4 289/1/4
f 288/2/4 279/2/4 289/2/4
f 280/1/4 264/1/4 290/1/4
f 289/1/4 280/1/4 290/1/4
f 286/2/4 287/2/4 291/2/4
f 281/2/4 282/2/4 291/2/4
f 289/2/4 290/2/4 291/2/4
f 288/2/4 289/2/4 291/2/4
f 283/2/4 284/2/4 291/2/4
f 285/2/4 286/2/4 291/2/4
f 284/2/4 285/2/4 291/2/4
f 282/2/4 283/2/4 291/2/4
f 287/2/4 288/2/4 291/2/4
f 291/2/4 290/2/4 292/2/4
f 299/1/5 294/1/5 293/1/5
f 300/2/5 295/2/5 294/2/5
f 300/1/5 294/1/5 299/1/5
f 301/2/5 295/2/5 300/2/5
f 302/2/5 297/2/5 296/2/5
f 303/1/5 298/1/5 297/1/5
f 303/2/5 297/2/5 302/2/5
f 304/1/5 298/1/5 303/1/5
f 305/2/5 300/2/5 299/2/5
f 306/2/5 300/2/5 305/2/5
f 307/2/5 304/2/5 303/2/5
f 308/2/5 304/2/5 307/2/5
f 309/1/5 306/1/5 305/1/5
f 310/1/5 306/1/5 309/1/5
f 311/1/5 308/1/5 307/1/5
f 312/1/5 308/1/5 311/1/5
f 313/2/5 310/2/5 309/2/5
f 314/2/5 310/2/5 313/2/5
f 315/2/5 312/2/5 311/2/5
f 316/2/5 312/2/5 315/2/5
f 317/1/5 314/1/5 313/1/5
f 318/1/5 314/1/5 317/1/5
f 319/1/5 316/1/5 315/1/5
f 320/1/5 316/1/5 319/1/5
f 321/2/5 318/2/5 317/2/5
f 322/2/5 318/2/5 321/2/5
f 323/2/5 320/2/5 319/2/5
f 324/2/5 320/2/5 323/2/5
f 325/1/5 322/1/5 321/1/5
f 326/1/5 322/1/5 325/1/5
f 327/1/5 324/1/5 323/1/5
f 328/1/5 324/1/5 327/1/5
f 329/2/5 326/2/5 325/2/5
f 330/2/5 326/2/5 329/2/5
f 331/2/5 328/2/5 327/2/5
f 332/2/5 328/2/5 331/2/5
f 333/1/5 330/1/5 329/1/5
f 334/1/5 330/1/5 333/1/5
f 337/1/5 332/1/5 331/1/5
f 338/1/5 332/1/5 337/1/5
f 339/2/5 334/2/5 333/2/5
f 340/1/5 335/1/5 334/1/5
f 340/2/5 334/2/5 339/2/5
f 341/1/5 335/1/5 340/1/5
f 342/1/5 337/1/5 336/1/5
f 343/2/5 338/2/5 337/2/5
f 343/1/5 337/1/5 342/1/5
f 344/2/5 338/2/5 343/2/5
f 349/1/5 346/1/5 345/1/5
f 350/1/5 346/1/5 349/1/5
f 351/1/5 348/1/5 347/1/5
f 352/1/5 348/1/5 351/1/5
f 353/2/5 350/2/5 349/2/5
f 353/2/5 351/2/5 350/2/5
f 353/2/5 352/2/5 351/2/5
f 354/2/5 352/2/5 353/2/5
f 355/2/5 352/2/5 354/2/5
f 356/2/5 352/2/5 355/2/5
f 357/1/5 354/1/5 353/1/5
f 358/1/5 354/1/5 357/1/5
f 359/1/5 356/1/5 355/1/5
f 360/1/5 356/1/5 359/1/5
f 363/2/5 362/2/5 361/2/5
f 364/2/5 362/2/5 363/2/5
f 368/2/5 366/2/5 365/2/5
f 369/2/5 366/2/5 368/2/5
f 371/1/5 368/1/5 367/1/5
f 371/1/5 370/1/5 369/1/5
f 371/1/5 369/1/5 368/1/5
f 372/1/5 370/1/5 371/1/5
f 373/2/5 372/2/5 371/2/5
f 374/2/5 372/2/5 373/2/5
f 375/1/5 374/1/5 373/1/5
f 376/1/5 374/1/5 375/1/5
f 377/2/5 376/2/5 375/2/5
f 378/2/5 376/2/5 377/2/5
f 379/1/5 378/1/5 377/1/5
f 380/1/5 378/1/5 379/1/5
f 381/2/5 380/2/5 379/2/5
f 382/2/5 380/2/5 381/2/5
f 383/1/5 382/1/5 381/1/5
f 384/1/5 382/1/5 383/1/5
f 385/2/5 384/2/5 383/2/5
f 386/2/5 384/2/5 385/2/5
f 387/2/5 384/2/5 386/2/5
f 388/2/5 384/2/5 387/2/5
f 389/1/5 387/1/5 386/1/5
f 390/1/5 387/1/5 389/1/5
f 391/1/6 392/1/6 395/1/6
f 395/1/6 392/1/6 396/1/6
f 393/1/6 394/1/6 397/1/6
f 397/1/6 394/1/6 398/1/6
f 395/2/6 396/2/6 399/2/6
f 396/2/6 397/2/6 399/2/6
f 397/2/6 398/2/6 399/2/6
f 399/2/6 398/2/6 400/2/6
f 400/2/6 398/2/6 401/2/6
f 401/2/6 398/2/6 402/2/6
f 399/1/6 400/1/6 403/1/6
f 403/1/6 400/1/6 404/1/6
f 401/1/6 402/1/6 405/1/6
f 405/1/6 402/1/6 406/1/6
f 407/2/6 408/2/6 409/2/6
f 409/2/6 408/2/6 410/2/6
f 411/2/6 412/2/6 413/2/6
f 413/2/6 412/2/6 414/2/6
f 411/2/6 413/2/6 415/2/6
f 413/1/6 414/1/6 415/1/6
f 414/2/6 412/2/6 416/2/6
f 415/1/6 414/1/6 416/1/6
f 411/2/6 415/2/6 417/2/6
f 415/2/6 416/2/6 417/2/6
f 416/2/6 412/2/6 418/2/6
f 417/2/6 416/2/6 418/2/6
f 411/2/6 417/2/6 419/2/6
f 417/1/6 418/1/6 419/1/6
f 418/2/6 412/2/6 420/2/6
f 419/1/6 418/1/6 420/1/6
f 411/2/6 419/2/6 421/2/6
f 419/2/6 420/2/6 421/2/6
f 420/2/6 412/2/6 422/2/6
f 421/2/6 420/2/6 422/2/6
f 411/2/6 421/2/6 423/2/6
f 421/1/6 422/1/6 423/1/6
f 422/2/6 412/2/6 424/2/6
f 423/1/6 422/1/6 424/1/6
f 411/2/6 423/2/6 425/2/6
f 423/2/6 424/2/6 425/2/6
f 424/2/6 412/2/6 426/2/6
f 425/2/6 424/2/6 426/2/6
f 411/2/6 425/2/6 427/2/6
f 425/1/6 426/1/6 427/1/6
f 426/2/6 412/2/6 428/2/6
f 427/1/6 426/1/6 428/1/6
f 411/2/6 427/2/6 429/2/6
f 427/2/6 428/2/6 429/2/6
f 428/2/6 412/2/6 430/2/6
f 429/2/6 428/2/6 430/2/6
f 411/2/6 429/2/6 431/2/6
f 429/1/6 430/1/6 432/1/6
f 431/2/6 429/2/6 432/2/6
f 430/2/6 412/2/6 433/2/6
f 432/1/6 430/1/6 433/1/6
f 433/2/6 412/2/6 434/2/6
