# MagicaVoxel @ Ephtracy

# group
g Block1x1

# material
mtllib Block1x1.mtl
usemtl palette

# normals
vn -1 0 0
vn 1 0 0
vn 0 0 1
vn 0 0 -1
vn 0 -1 0
vn 0 1 0

# texcoords
vt 0.630859 0.5
vt 0.720703 0.5
vt 0.751953 0.5

# verts
v -32 0 32
v -32 0 -32
v -32 7 21
v -32 7 16
v -32 8 23
v -32 8 21
v -32 8 16
v -32 8 14
v -32 8 8
v -32 8 3
v -32 9 23
v -32 9 21
v -32 9 16
v -32 9 14
v -32 9 8
v -32 9 3
v -32 10 28
v -32 10 23
v -32 10 14
v -32 10 8
v -32 10 3
v -32 10 -5
v -32 11 31
v -32 11 28
v -32 11 -5
v -32 11 -9
v -32 12 32
v -32 12 31
v -32 12 -9
v -32 12 -17
v -32 13 -17
v -32 13 -24
v -32 14 -24
v -32 14 -32
v -8 9 8
v -8 9 7
v -8 10 8
v -8 10 7
v -5 8 21
v -5 8 20
v -5 9 21
v -5 9 20
v -5 10 28
v -5 10 27
v -5 11 28
v -5 11 27
v 16 9 23
v 16 9 22
v 16 9 3
v 16 9 2
v 16 10 23
v 16 10 22
v 16 10 3
v 16 10 2
v 23 11 31
v 23 11 30
v 23 12 31
v 23 12 30
v -25 11 -9
v -25 11 -10
v -25 12 -9
v -25 12 -10
v -25 12 -17
v -25 12 -18
v -25 13 -17
v -25 13 -18
v -23 13 -24
v -23 13 -25
v -23 14 -24
v -23 14 -25
v -19 9 14
v -19 9 13
v -19 10 14
v -19 10 13
v -18 12 -18
v -18 12 -19
v -18 13 -18
v -18 13 -19
v -16 13 -25
v -16 13 -26
v -16 14 -25
v -16 14 -26
v -15 11 -10
v -15 11 -11
v -15 12 -10
v -15 12 -11
v -13 10 -5
v -13 10 -6
v -13 11 -5
v -13 11 -6
v -10 8 16
v -10 8 15
v -10 9 16
v -10 9 15
v -9 9 3
v -9 9 2
v -9 10 3
v -9 10 2
v -1 9 13
v -1 9 12
v -1 10 13
v -1 10 12
v 1 11 -11
v 1 11 -12
v 1 12 -11
v 1 12 -12
v 3 10 -6
v 3 10 -7
v 3 11 -6
v 3 11 -7
v 4 13 -26
v 4 13 -27
v 4 14 -26
v 4 14 -27
v 5 12 -19
v 5 12 -20
v 5 13 -19
v 5 13 -20
v 13 9 8
v 13 9 7
v 13 10 8
v 13 10 7
v 32 0 32
v 32 0 -32
v 32 7 20
v 32 7 15
v 32 8 22
v 32 8 20
v 32 8 15
v 32 8 12
v 32 8 8
v 32 8 1
v 32 9 22
v 32 9 20
v 32 9 15
v 32 9 12
v 32 9 8
v 32 9 3
v 32 9 1
v 32 10 27
v 32 10 22
v 32 10 12
v 32 10 8
v 32 10 3
v 32 10 -7
v 32 11 30
v 32 11 27
v 32 11 -7
v 32 11 -12
v 32 12 32
v 32 12 30
v 32 12 -12
v 32 12 -20
v 32 13 -20
v 32 13 -27
v 32 14 -27
v 32 14 -32
v -32 0 32
v -32 12 32
v 32 0 32
v 32 12 32
v -32 8 16
v -32 9 16
v -10 8 16
v -10 9 16
v -10 8 15
v -10 9 15
v 32 8 15
v 32 9 15
v -32 9 14
v -32 10 14
v -19 9 14
v -19 10 14
v -19 9 13
v -19 10 13
v -1 9 13
v -1 10 13
v -1 9 12
v -1 10 12
v 32 9 12
v 32 10 12
v -32 9 3
v -32 10 3
v -9 9 3
v -9 10 3
v 16 9 3
v 16 10 3
v 32 9 3
v 32 10 3
v -9 9 2
v -9 10 2
v 16 9 2
v 16 10 2
v -32 10 -5
v -32 11 -5
v -13 10 -5
v -13 11 -5
v -13 10 -6
v -13 11 -6
v 3 10 -6
v 3 11 -6
v 3 10 -7
v 3 11 -7
v 32 10 -7
v 32 11 -7
v -32 11 -9
v -32 12 -9
v -25 11 -9
v -25 12 -9
v -25 11 -10
v -25 12 -10
v -15 11 -10
v -15 12 -10
v -15 11 -11
v -15 12 -11
v 1 11 -11
v 1 12 -11
v 1 11 -12
v 1 12 -12
v 32 11 -12
v 32 12 -12
v -32 12 -17
v -32 13 -17
v -25 12 -17
v -25 13 -17
v -25 12 -18
v -25 13 -18
v -18 12 -18
v -18 13 -18
v -18 12 -19
v -18 13 -19
v 5 12 -19
v 5 13 -19
v 5 12 -20
v 5 13 -20
v 32 12 -20
v 32 13 -20
v -32 13 -24
v -32 14 -24
v -23 13 -24
v -23 14 -24
v -23 13 -25
v -23 14 -25
v -16 13 -25
v -16 14 -25
v -16 13 -26
v -16 14 -26
v 4 13 -26
v 4 14 -26
v 4 13 -27
v 4 14 -27
v 32 13 -27
v 32 14 -27
v -32 11 31
v -32 12 31
v 23 11 31
v 23 12 31
v 23 11 30
v 23 12 30
v 32 11 30
v 32 12 30
v -32 10 28
v -32 11 28
v -5 10 28
v -5 11 28
v -5 10 27
v -5 11 27
v 32 10 27
v 32 11 27
v -32 9 23
v -32 10 23
v 16 9 23
v 16 10 23
v 16 9 22
v 16 10 22
v 32 9 22
v 32 10 22
v -32 8 21
v -32 9 21
v -5 8 21
v -5 9 21
v -5 8 20
v -5 9 20
v 32 8 20
v 32 9 20
v -32 9 8
v -32 10 8
v -8 9 8
v -8 10 8
v 13 9 8
v 13 10 8
v 32 9 8
v 32 10 8
v -8 9 7
v -8 10 7
v 13 9 7
v 13 10 7
v -32 0 -32
v -32 14 -32
v 32 0 -32
v 32 14 -32
v -32 0 32
v 32 0 32
v -32 0 -32
v 32 0 -32
v -32 8 21
v -5 8 21
v -5 8 20
v 32 8 20
v -32 8 16
v -10 8 16
v -10 8 15
v 32 8 15
v -32 9 23
v 16 9 23
v 16 9 22
v 32 9 22
v -32 9 21
v -5 9 21
v -5 9 20
v 32 9 20
v -32 9 16
v -10 9 16
v -10 9 15
v 32 9 15
v -32 9 14
v -19 9 14
v -19 9 13
v -1 9 13
v -1 9 12
v 32 9 12
v -32 9 8
v -8 9 8
v 13 9 8
v 32 9 8
v -8 9 7
v 13 9 7
v -32 9 3
v -9 9 3
v 16 9 3
v 32 9 3
v -9 9 2
v 16 9 2
v -32 10 28
v -5 10 28
v -5 10 27
v 32 10 27
v -32 10 23
v 16 10 23
v 16 10 22
v 32 10 22
v -32 10 14
v -19 10 14
v -19 10 13
v -1 10 13
v -1 10 12
v 32 10 12
v -32 10 8
v -8 10 8
v 13 10 8
v 32 10 8
v -8 10 7
v 13 10 7
v -32 10 3
v -9 10 3
v 16 10 3
v 32 10 3
v -9 10 2
v 16 10 2
v -32 10 -5
v -13 10 -5
v -13 10 -6
v 3 10 -6
v 3 10 -7
v 32 10 -7
v -32 11 31
v 23 11 31
v 23 11 30
v 32 11 30
v -32 11 28
v -5 11 28
v -5 11 27
v 32 11 27
v -32 11 -5
v -13 11 -5
v -13 11 -6
v 3 11 -6
v 3 11 -7
v 32 11 -7
v -32 11 -9
v -25 11 -9
v -25 11 -10
v -15 11 -10
v -15 11 -11
v 1 11 -11
v 1 11 -12
v 32 11 -12
v -32 12 32
v 32 12 32
v -32 12 31
v 23 12 31
v 23 12 30
v 32 12 30
v -32 12 -9
v -25 12 -9
v -25 12 -10
v -15 12 -10
v -15 12 -11
v 1 12 -11
v 1 12 -12
v 32 12 -12
v -32 12 -17
v -25 12 -17
v -25 12 -18
v -18 12 -18
v -18 12 -19
v 5 12 -19
v 5 12 -20
v 32 12 -20
v -32 13 -17
v -25 13 -17
v -25 13 -18
v -18 13 -18
v -18 13 -19
v 5 13 -19
v 5 13 -20
v 32 13 -20
v -32 13 -24
v -23 13 -24
v -23 13 -25
v -16 13 -25
v -16 13 -26
v 4 13 -26
v 4 13 -27
v 32 13 -27
v -32 14 -24
v -23 14 -24
v -23 14 -25
v -16 14 -25
v -16 14 -26
v 4 14 -26
v 4 14 -27
v 32 14 -27
v -32 14 -32
v 32 14 -32

# faces
f 3/3/1 2/3/1 1/3/1
f 4/3/1 2/3/1 3/3/1
f 5/3/1 3/3/1 1/3/1
f 6/2/1 4/2/1 3/2/1
f 6/3/1 3/3/1 5/3/1
f 7/3/1 2/3/1 4/3/1
f 7/2/1 4/2/1 6/2/1
f 8/3/1 2/3/1 7/3/1
f 9/3/1 2/3/1 8/3/1
f 10/3/1 2/3/1 9/3/1
f 11/1/1 6/1/1 5/1/1
f 11/3/1 5/3/1 1/3/1
f 12/1/1 6/1/1 11/1/1
f 13/1/1 8/1/1 7/1/1
f 14/3/1 9/3/1 8/3/1
f 14/1/1 8/1/1 13/1/1
f 15/1/1 10/1/1 9/1/1
f 15/3/1 9/3/1 14/3/1
f 16/3/1 2/3/1 10/3/1
f 16/1/1 10/1/1 15/1/1
f 17/3/1 11/3/1 1/3/1
f 18/3/1 11/3/1 17/3/1
f 19/3/1 15/3/1 14/3/1
f 20/3/1 15/3/1 19/3/1
f 21/3/1 2/3/1 16/3/1
f 22/3/1 2/3/1 21/3/1
f 23/3/1 17/3/1 1/3/1
f 24/3/1 17/3/1 23/3/1
f 25/3/1 2/3/1 22/3/1
f 26/3/1 2/3/1 25/3/1
f 27/3/1 23/3/1 1/3/1
f 28/3/1 23/3/1 27/3/1
f 29/3/1 2/3/1 26/3/1
f 30/3/1 2/3/1 29/3/1
f 31/3/1 2/3/1 30/3/1
f 32/3/1 2/3/1 31/3/1
f 33/3/1 2/3/1 32/3/1
f 34/3/1 2/3/1 33/3/1
f 37/3/1 36/3/1 35/3/1
f 38/3/1 36/3/1 37/3/1
f 41/1/1 40/1/1 39/1/1
f 42/1/1 40/1/1 41/1/1
f 45/3/1 44/3/1 43/3/1
f 46/3/1 44/3/1 45/3/1
f 51/3/1 48/3/1 47/3/1
f 52/3/1 48/3/1 51/3/1
f 53/3/1 50/3/1 49/3/1
f 54/3/1 50/3/1 53/3/1
f 57/3/1 56/3/1 55/3/1
f 58/3/1 56/3/1 57/3/1
f 59/3/2 60/3/2 61/3/2
f 61/3/2 60/3/2 62/3/2
f 63/3/2 64/3/2 65/3/2
f 65/3/2 64/3/2 66/3/2
f 67/3/2 68/3/2 69/3/2
f 69/3/2 68/3/2 70/3/2
f 71/3/2 72/3/2 73/3/2
f 73/3/2 72/3/2 74/3/2
f 75/3/2 76/3/2 77/3/2
f 77/3/2 76/3/2 78/3/2
f 79/3/2 80/3/2 81/3/2
f 81/3/2 80/3/2 82/3/2
f 83/3/2 84/3/2 85/3/2
f 85/3/2 84/3/2 86/3/2
f 87/3/2 88/3/2 89/3/2
f 89/3/2 88/3/2 90/3/2
f 91/1/2 92/1/2 93/1/2
f 93/1/2 92/1/2 94/1/2
f 95/3/2 96/3/2 97/3/2
f 97/3/2 96/3/2 98/3/2
f 99/3/2 100/3/2 101/3/2
f 101/3/2 100/3/2 102/3/2
f 103/3/2 104/3/2 105/3/2
f 105/3/2 104/3/2 106/3/2
f 107/3/2 108/3/2 109/3/2
f 109/3/2 108/3/2 110/3/2
f 111/3/2 112/3/2 113/3/2
f 113/3/2 112/3/2 114/3/2
f 115/3/2 116/3/2 117/3/2
f 117/3/2 116/3/2 118/3/2
f 119/3/2 120/3/2 121/3/2
f 121/3/2 120/3/2 122/3/2
f 123/3/2 124/3/2 125/3/2
f 125/3/2 124/3/2 126/3/2
f 123/3/2 125/3/2 127/3/2
f 125/2/2 126/2/2 128/2/2
f 127/3/2 125/3/2 128/3/2
f 126/3/2 124/3/2 129/3/2
f 128/2/2 126/2/2 129/2/2
f 129/3/2 124/3/2 130/3/2
f 130/3/2 124/3/2 131/3/2
f 131/3/2 124/3/2 132/3/2
f 127/1/2 128/1/2 133/1/2
f 123/3/2 127/3/2 133/3/2
f 133/1/2 128/1/2 134/1/2
f 129/1/2 130/1/2 135/1/2
f 130/3/2 131/3/2 136/3/2
f 135/1/2 130/1/2 136/1/2
f 131/1/2 132/1/2 137/1/2
f 136/3/2 131/3/2 137/3/2
f 137/1/2 132/1/2 138/1/2
f 132/3/2 124/3/2 139/3/2
f 138/1/2 132/1/2 139/1/2
f 123/3/2 133/3/2 140/3/2
f 140/3/2 133/3/2 141/3/2
f 136/3/2 137/3/2 142/3/2
f 142/3/2 137/3/2 143/3/2
f 138/3/2 139/3/2 144/3/2
f 139/3/2 124/3/2 145/3/2
f 144/3/2 139/3/2 145/3/2
f 123/3/2 140/3/2 146/3/2
f 146/3/2 140/3/2 147/3/2
f 145/3/2 124/3/2 148/3/2
f 148/3/2 124/3/2 149/3/2
f 123/3/2 146/3/2 150/3/2
f 150/3/2 146/3/2 151/3/2
f 149/3/2 124/3/2 152/3/2
f 152/3/2 124/3/2 153/3/2
f 153/3/2 124/3/2 154/3/2
f 154/3/2 124/3/2 155/3/2
f 155/3/2 124/3/2 156/3/2
f 156/3/2 124/3/2 157/3/2
f 160/3/3 159/3/3 158/3/3
f 161/3/3 159/3/3 160/3/3
f 164/1/3 163/1/3 162/1/3
f 165/1/3 163/1/3 164/1/3
f 168/1/3 167/1/3 166/1/3
f 169/1/3 167/1/3 168/1/3
f 172/3/3 171/3/3 170/3/3
f 173/3/3 171/3/3 172/3/3
f 176/3/3 175/3/3 174/3/3
f 177/3/3 175/3/3 176/3/3
f 180/3/3 179/3/3 178/3/3
f 181/3/3 179/3/3 180/3/3
f 184/3/3 183/3/3 182/3/3
f 185/3/3 183/3/3 184/3/3
f 188/3/3 187/3/3 186/3/3
f 189/3/3 187/3/3 188/3/3
f 192/3/3 191/3/3 190/3/3
f 193/3/3 191/3/3 192/3/3
f 196/3/3 195/3/3 194/3/3
f 197/3/3 195/3/3 196/3/3
f 200/3/3 199/3/3 198/3/3
f 201/3/3 199/3/3 200/3/3
f 204/3/3 203/3/3 202/3/3
f 205/3/3 203/3/3 204/3/3
f 208/3/3 207/3/3 206/3/3
f 209/3/3 207/3/3 208/3/3
f 212/3/3 211/3/3 210/3/3
f 213/3/3 211/3/3 212/3/3
f 216/3/3 215/3/3 214/3/3
f 217/3/3 215/3/3 216/3/3
f 220/3/3 219/3/3 218/3/3
f 221/3/3 219/3/3 220/3/3
f 224/3/3 223/3/3 222/3/3
f 225/3/3 223/3/3 224/3/3
f 228/3/3 227/3/3 226/3/3
f 229/3/3 227/3/3 228/3/3
f 232/3/3 231/3/3 230/3/3
f 233/3/3 231/3/3 232/3/3
f 236/3/3 235/3/3 234/3/3
f 237/3/3 235/3/3 236/3/3
f 240/3/3 239/3/3 238/3/3
f 241/3/3 239/3/3 240/3/3
f 244/3/3 243/3/3 242/3/3
f 245/3/3 243/3/3 244/3/3
f 248/3/3 247/3/3 246/3/3
f 249/3/3 247/3/3 248/3/3
f 252/3/3 251/3/3 250/3/3
f 253/3/3 251/3/3 252/3/3
f 254/3/4 255/3/4 256/3/4
f 256/3/4 255/3/4 257/3/4
f 258/3/4 259/3/4 260/3/4
f 260/3/4 259/3/4 261/3/4
f 262/3/4 263/3/4 264/3/4
f 264/3/4 263/3/4 265/3/4
f 266/3/4 267/3/4 268/3/4
f 268/3/4 267/3/4 269/3/4
f 270/3/4 271/3/4 272/3/4
f 272/3/4 271/3/4 273/3/4
f 274/3/4 275/3/4 276/3/4
f 276/3/4 275/3/4 277/3/4
f 278/1/4 279/1/4 280/1/4
f 280/1/4 279/1/4 281/1/4
f 282/1/4 283/1/4 284/1/4
f 284/1/4 283/1/4 285/1/4
f 286/3/4 287/3/4 288/3/4
f 288/3/4 287/3/4 289/3/4
f 290/3/4 291/3/4 292/3/4
f 292/3/4 291/3/4 293/3/4
f 294/3/4 295/3/4 296/3/4
f 296/3/4 295/3/4 297/3/4
f 298/3/4 299/3/4 300/3/4
f 300/3/4 299/3/4 301/3/4
f 304/3/5 303/3/5 302/3/5
f 305/3/5 303/3/5 304/3/5
f 306/2/6 307/2/6 308/2/6
f 306/2/6 308/2/6 310/2/6
f 308/2/6 309/2/6 310/2/6
f 310/2/6 309/2/6 311/2/6
f 311/2/6 309/2/6 312/2/6
f 312/2/6 309/2/6 313/2/6
f 314/1/6 315/1/6 316/1/6
f 314/1/6 316/1/6 318/1/6
f 316/1/6 317/1/6 318/1/6
f 318/1/6 317/1/6 319/1/6
f 319/1/6 317/1/6 320/1/6
f 320/1/6 317/1/6 321/1/6
f 322/1/6 323/1/6 324/1/6
f 322/1/6 324/1/6 326/1/6
f 324/1/6 325/1/6 326/1/6
f 326/1/6 325/1/6 327/1/6
f 327/1/6 325/1/6 328/1/6
f 328/1/6 325/1/6 329/1/6
f 329/1/6 325/1/6 330/1/6
f 330/1/6 325/1/6 331/1/6
f 332/1/6 333/1/6 336/1/6
f 334/1/6 335/1/6 337/1/6
f 332/1/6 336/1/6 338/1/6
f 336/1/6 337/1/6 338/1/6
f 338/1/6 337/1/6 339/1/6
f 337/1/6 335/1/6 340/1/6
f 339/1/6 337/1/6 340/1/6
f 340/1/6 335/1/6 341/1/6
f 339/1/6 340/1/6 342/1/6
f 342/1/6 340/1/6 343/1/6
f 344/3/6 345/3/6 346/3/6
f 344/3/6 346/3/6 348/3/6
f 346/3/6 347/3/6 348/3/6
f 348/3/6 347/3/6 349/3/6
f 349/3/6 347/3/6 350/3/6
f 350/3/6 347/3/6 351/3/6
f 352/3/6 353/3/6 354/3/6
f 354/3/6 355/3/6 356/3/6
f 352/3/6 354/3/6 358/3/6
f 356/3/6 357/3/6 358/3/6
f 354/3/6 356/3/6 358/3/6
f 358/3/6 357/3/6 359/3/6
f 359/3/6 357/3/6 360/3/6
f 360/3/6 357/3/6 361/3/6
f 359/3/6 360/3/6 362/3/6
f 362/3/6 360/3/6 363/3/6
f 364/3/6 365/3/6 368/3/6
f 366/3/6 367/3/6 369/3/6
f 364/3/6 368/3/6 370/3/6
f 368/3/6 369/3/6 370/3/6
f 370/3/6 369/3/6 371/3/6
f 371/3/6 369/3/6 372/3/6
f 372/3/6 369/3/6 373/3/6
f 373/3/6 369/3/6 374/3/6
f 369/3/6 367/3/6 375/3/6
f 374/3/6 369/3/6 375/3/6
f 376/3/6 377/3/6 378/3/6
f 376/3/6 378/3/6 380/3/6
f 378/3/6 379/3/6 380/3/6
f 380/3/6 379/3/6 381/3/6
f 381/3/6 379/3/6 382/3/6
f 382/3/6 379/3/6 383/3/6
f 384/3/6 385/3/6 386/3/6
f 386/3/6 387/3/6 388/3/6
f 384/3/6 386/3/6 390/3/6
f 388/3/6 389/3/6 390/3/6
f 386/3/6 388/3/6 390/3/6
f 390/3/6 389/3/6 391/3/6
f 391/3/6 389/3/6 392/3/6
f 392/3/6 389/3/6 393/3/6
f 393/3/6 389/3/6 394/3/6
f 394/3/6 389/3/6 395/3/6
f 395/3/6 389/3/6 396/3/6
f 396/3/6 389/3/6 397/3/6
f 398/3/6 399/3/6 400/3/6
f 400/3/6 399/3/6 401/3/6
f 401/3/6 399/3/6 402/3/6
f 402/3/6 399/3/6 403/3/6
f 404/3/6 405/3/6 406/3/6
f 406/3/6 407/3/6 408/3/6
f 408/3/6 409/3/6 410/3/6
f 404/3/6 406/3/6 412/3/6
f 410/3/6 411/3/6 412/3/6
f 408/3/6 410/3/6 412/3/6
f 406/3/6 408/3/6 412/3/6
f 412/3/6 411/3/6 413/3/6
f 413/3/6 411/3/6 414/3/6
f 414/3/6 411/3/6 415/3/6
f 415/3/6 411/3/6 416/3/6
f 416/3/6 411/3/6 417/3/6
f 417/3/6 411/3/6 418/3/6
f 418/3/6 411/3/6 419/3/6
f 420/3/6 421/3/6 422/3/6
f 422/3/6 423/3/6 424/3/6
f 424/3/6 425/3/6 426/3/6
f 420/3/6 422/3/6 428/3/6
f 426/3/6 427/3/6 428/3/6
f 424/3/6 426/3/6 428/3/6
f 422/3/6 424/3/6 428/3/6
f 428/3/6 427/3/6 429/3/6
f 429/3/6 427/3/6 430/3/6
f 430/3/6 427/3/6 431/3/6
f 431/3/6 427/3/6 432/3/6
f 432/3/6 427/3/6 433/3/6
f 433/3/6 427/3/6 434/3/6
f 434/3/6 427/3/6 435/3/6
f 436/3/6 437/3/6 438/3/6
f 438/3/6 439/3/6 440/3/6
f 440/3/6 441/3/6 442/3/6
f 436/3/6 438/3/6 444/3/6
f 442/3/6 443/3/6 444/3/6
f 440/3/6 442/3/6 444/3/6
f 438/3/6 440/3/6 444/3/6
f 444/3/6 443/3/6 445/3/6
