# MagicaVoxel @ Ephtracy

# group
o Mesh

# material
mtllib Terrain_Tile_Natural_Stone01.mtl
usemtl palette

# normals
vn 0 0 -1
vn 0 0 1
vn -1 0 0
vn 1 0 0
vn 0 -1 0
vn 0 1 0

# texcoords
vt 0.880859 0.5
vt 0.884766 0.5
vt 0.888672 0.5

# verts
v -1.5 0 -1.5
v -0.7 0 -1.5
v -0.6 0 -1.5
v 0.2 0 -1.5
v 0.6 0 -1.5
v 0.7 0 -1.5
v 0.8 0 -1.5
v 1.5 0 -1.5
v -1.5 0.1 -1.5
v -0.7 0.1 -1.5
v -0.6 0.1 -1.5
v 0.2 0.1 -1.5
v 0.6 0.1 -1.5
v 0.7 0.1 -1.5
v 0.8 0.1 -1.5
v 1.5 0.1 -1.5
v -1.5 0 1.5
v -0.8 0 1.5
v -0.7 0 1.5
v 0.2 0 1.5
v 0.7 0 1.5
v 0.8 0 1.5
v 1.5 0 1.5
v -1.5 0.1 1.5
v -0.8 0.1 1.5
v -0.7 0.1 1.5
v 0.2 0.1 1.5
v 0.7 0.1 1.5
v 0.8 0.1 1.5
v 1.5 0.1 1.5
v -1.5 0 -1.5
v -1.5 0.1 -1.5
v -1.5 0 -0.8
v -1.5 0.1 -0.8
v -1.5 0 -0.7
v -1.5 0.1 -0.7
v -1.5 0 0.6
v -1.5 0.1 0.6
v -1.5 0 0.7
v -1.5 0.1 0.7
v -1.5 0 0.8
v -1.5 0.1 0.8
v -1.5 0 0.9
v -1.5 0.1 0.9
v -1.5 0 1
v -1.5 0.1 1
v -1.5 0 1.1
v -1.5 0.1 1.1
v -1.5 0 1.5
v -1.5 0.1 1.5
v 1.5 0 -1.5
v 1.5 0.1 -1.5
v 1.5 0 -0.7
v 1.5 0.1 -0.7
v 1.5 0 0.7
v 1.5 0.1 0.7
v 1.5 0 0.8
v 1.5 0.1 0.8
v 1.5 0 0.9
v 1.5 0.1 0.9
v 1.5 0 1
v 1.5 0.1 1
v 1.5 0 1.1
v 1.5 0.1 1.1
v 1.5 0 1.5
v 1.5 0.1 1.5
v -1.5 0 -1.5
v -1.5 0 -0.8
v -1.5 0 -0.7
v -1.5 0 0.6
v -1.5 0 0.7
v -1.5 0 0.8
v -1.5 0 0.9
v -1.5 0 1
v -1.5 0 1.1
v -1.5 0 1.5
v -1.4 0 -1.4
v -1.4 0 -0.8
v -1.4 0 -0.7
v -1.4 0 -0.6
v -1.3 0 -1.3
v -1.3 0 -0.8
v -1.2 0 0.7
v -1.2 0 0.8
v -1.2 0 0.9
v -1.1 0 -0.3
v -1.1 0 0.6
v -1.1 0 0.9
v -1 0 -0.7
v -1 0 -0.6
v -1 0 -0.3
v -1 0 -0.1
v -1 0 0
v -1 0 0.6
v -1 0 0.9
v -0.9 0 -0.9
v -0.9 0 -0.8
v -0.9 0 -0.7
v -0.9 0 -0.3
v -0.9 0 -0.1
v -0.9 0 0.1
v -0.9 0 0.6
v -0.8 0 -1.4
v -0.8 0 -1.3
v -0.8 0 -0.9
v -0.8 0 -0.7
v -0.8 0 -0.3
v -0.8 0 0.9
v -0.8 0 1
v -0.8 0 1.1
v -0.8 0 1.4
v -0.8 0 1.5
v -0.7 0 -1.5
v -0.7 0 -1
v -0.7 0 -0.8
v -0.7 0 -0.7
v -0.7 0 0.9
v -0.7 0 1
v -0.7 0 1.1
v -0.7 0 1.4
v -0.7 0 1.5
v -0.6 0 -1.5
v -0.6 0 -1
v -0.6 0 0.8
v -0.6 0 0.9
v -0.6 0 1
v -0.6 0 1.1
v -0.6 0 1.3
v -0.5 0 -0.3
v -0.5 0 -0.1
v -0.5 0 0.7
v -0.5 0 0.8
v -0.5 0 1.1
v -0.5 0 1.3
v -0.4 0 -0.5
v -0.4 0 -0.3
v -0.4 0 -0.1
v -0.4 0 0
v -0.4 0 0.1
v -0.4 0 0.7
v -0.4 0 0.8
v -0.4 0 0.9
v -0.4 0 1
v -0.3 0 -1
v -0.3 0 -0.9
v -0.3 0 -0.8
v -0.3 0 -0.5
v -0.3 0 -0.3
v -0.3 0 -0.1
v -0.3 0 0
v -0.3 0 0.2
v -0.3 0 0.7
v -0.2 0 -0.8
v -0.2 0 -0.5
v -0.2 0 -0.3
v -0.2 0 0
v -0.2 0 0.1
v -0.2 0 0.3
v -0.2 0 0.7
v -0.1 0 -0.7
v -0.1 0 -0.5
v 0.2 0 -1.5
v 0.2 0 -1.4
v 0.2 0 -1
v 0.2 0 -0.9
v 0.2 0 -0.8
v 0.2 0 -0.7
v 0.2 0 1.3
v 0.2 0 1.4
v 0.2 0 1.5
v 0.3 0 0
v 0.3 0 0.1
v 0.3 0 0.2
v 0.3 0 0.3
v 0.3 0 0.7
v 0.3 0 0.8
v 0.3 0 0.9
v 0.3 0 1
v 0.4 0 0.1
v 0.4 0 0.8
v 0.5 0 -0.1
v 0.5 0 0
v 0.5 0 0.1
v 0.5 0 0.8
v 0.6 0 -1.5
v 0.6 0 -1.4
v 0.6 0 -1
v 0.6 0 1.2
v 0.6 0 1.4
v 0.7 0 -1.5
v 0.7 0 -1
v 0.7 0 -0.9
v 0.7 0 -0.8
v 0.7 0 -0.2
v 0.7 0 -0.1
v 0.7 0 0
v 0.7 0 0.1
v 0.7 0 1.1
v 0.7 0 1.2
v 0.7 0 1.5
v 0.8 0 -1.5
v 0.8 0 -1
v 0.8 0 -0.8
v 0.8 0 -0.7
v 0.8 0 1
v 0.8 0 1.1
v 0.8 0 1.2
v 0.8 0 1.5
v 0.9 0 -0.8
v 0.9 0 -0.7
v 0.9 0 -0.2
v 0.9 0 -0.1
v 0.9 0 0
v 0.9 0 0.3
v 0.9 0 0.9
v 0.9 0 1
v 0.9 0 1.1
v 0.9 0 1.2
v 1 0 -0.6
v 1 0 0.3
v 1 0 0.8
v 1.1 0 -0.5
v 1.1 0 0.3
v 1.1 0 0.5
v 1.1 0 0.7
v 1.1 0 0.9
v 1.2 0 0.5
v 1.2 0 0.6
v 1.2 0 0.8
v 1.2 0 0.9
v 1.4 0 -0.6
v 1.4 0 -0.5
v 1.4 0 0.6
v 1.5 0 -1.5
v 1.5 0 -0.7
v 1.5 0 0.7
v 1.5 0 0.8
v 1.5 0 0.9
v 1.5 0 1
v 1.5 0 1.1
v 1.5 0 1.5
v -1.5 0.1 -1.5
v -1.5 0.1 -0.8
v -1.5 0.1 -0.7
v -1.5 0.1 0.6
v -1.5 0.1 0.7
v -1.5 0.1 0.8
v -1.5 0.1 0.9
v -1.5 0.1 1
v -1.5 0.1 1.1
v -1.5 0.1 1.5
v -1.4 0.1 -1.4
v -1.4 0.1 -0.8
v -1.4 0.1 -0.7
v -1.4 0.1 -0.6
v -1.3 0.1 -1.3
v -1.3 0.1 -0.8
v -1.2 0.1 0.7
v -1.2 0.1 0.8
v -1.2 0.1 0.9
v -1.1 0.1 -0.3
v -1.1 0.1 0.6
v -1.1 0.1 0.9
v -1 0.1 -0.7
v -1 0.1 -0.6
v -1 0.1 -0.3
v -1 0.1 -0.1
v -1 0.1 0
v -1 0.1 0.6
v -1 0.1 0.9
v -0.9 0.1 -0.9
v -0.9 0.1 -0.8
v -0.9 0.1 -0.7
v -0.9 0.1 -0.3
v -0.9 0.1 -0.1
v -0.9 0.1 0.1
v -0.9 0.1 0.6
v -0.8 0.1 -1.4
v -0.8 0.1 -1.3
v -0.8 0.1 -0.9
v -0.8 0.1 -0.7
v -0.8 0.1 -0.3
v -0.8 0.1 0.9
v -0.8 0.1 1
v -0.8 0.1 1.1
v -0.8 0.1 1.4
v -0.8 0.1 1.5
v -0.7 0.1 -1.5
v -0.7 0.1 -1
v -0.7 0.1 -0.8
v -0.7 0.1 -0.7
v -0.7 0.1 0.9
v -0.7 0.1 1
v -0.7 0.1 1.1
v -0.7 0.1 1.4
v -0.7 0.1 1.5
v -0.6 0.1 -1.5
v -0.6 0.1 -1
v -0.6 0.1 0.8
v -0.6 0.1 0.9
v -0.6 0.1 1
v -0.6 0.1 1.1
v -0.6 0.1 1.3
v -0.5 0.1 -0.3
v -0.5 0.1 -0.1
v -0.5 0.1 0.7
v -0.5 0.1 0.8
v -0.5 0.1 1.1
v -0.5 0.1 1.3
v -0.4 0.1 -0.5
v -0.4 0.1 -0.3
v -0.4 0.1 -0.1
v -0.4 0.1 0
v -0.4 0.1 0.1
v -0.4 0.1 0.7
v -0.4 0.1 0.8
v -0.4 0.1 0.9
v -0.4 0.1 1
v -0.3 0.1 -1
v -0.3 0.1 -0.9
v -0.3 0.1 -0.8
v -0.3 0.1 -0.5
v -0.3 0.1 -0.3
v -0.3 0.1 -0.1
v -0.3 0.1 0
v -0.3 0.1 0.2
v -0.3 0.1 0.7
v -0.2 0.1 -0.8
v -0.2 0.1 -0.5
v -0.2 0.1 -0.3
v -0.2 0.1 0
v -0.2 0.1 0.1
v -0.2 0.1 0.3
v -0.2 0.1 0.7
v -0.1 0.1 -0.7
v -0.1 0.1 -0.5
v 0.2 0.1 -1.5
v 0.2 0.1 -1.4
v 0.2 0.1 -1
v 0.2 0.1 -0.9
v 0.2 0.1 -0.8
v 0.2 0.1 -0.7
v 0.2 0.1 1.3
v 0.2 0.1 1.4
v 0.2 0.1 1.5
v 0.3 0.1 0
v 0.3 0.1 0.1
v 0.3 0.1 0.2
v 0.3 0.1 0.3
v 0.3 0.1 0.7
v 0.3 0.1 0.8
v 0.3 0.1 0.9
v 0.3 0.1 1
v 0.4 0.1 0.1
v 0.4 0.1 0.8
v 0.5 0.1 -0.1
v 0.5 0.1 0
v 0.5 0.1 0.1
v 0.5 0.1 0.8
v 0.6 0.1 -1.5
v 0.6 0.1 -1.4
v 0.6 0.1 -1
v 0.6 0.1 1.2
v 0.6 0.1 1.4
v 0.7 0.1 -1.5
v 0.7 0.1 -1
v 0.7 0.1 -0.9
v 0.7 0.1 -0.8
v 0.7 0.1 -0.2
v 0.7 0.1 -0.1
v 0.7 0.1 0
v 0.7 0.1 0.1
v 0.7 0.1 1.1
v 0.7 0.1 1.2
v 0.7 0.1 1.5
v 0.8 0.1 -1.5
v 0.8 0.1 -1
v 0.8 0.1 -0.8
v 0.8 0.1 -0.7
v 0.8 0.1 1
v 0.8 0.1 1.1
v 0.8 0.1 1.2
v 0.8 0.1 1.5
v 0.9 0.1 -0.8
v 0.9 0.1 -0.7
v 0.9 0.1 -0.2
v 0.9 0.1 -0.1
v 0.9 0.1 0
v 0.9 0.1 0.3
v 0.9 0.1 0.9
v 0.9 0.1 1
v 0.9 0.1 1.1
v 0.9 0.1 1.2
v 1 0.1 -0.6
v 1 0.1 0.3
v 1 0.1 0.8
v 1.1 0.1 -0.5
v 1.1 0.1 0.3
v 1.1 0.1 0.5
v 1.1 0.1 0.7
v 1.1 0.1 0.9
v 1.2 0.1 0.5
v 1.2 0.1 0.6
v 1.2 0.1 0.8
v 1.2 0.1 0.9
v 1.4 0.1 -0.6
v 1.4 0.1 -0.5
v 1.4 0.1 0.6
v 1.5 0.1 -1.5
v 1.5 0.1 -0.7
v 1.5 0.1 0.7
v 1.5 0.1 0.8
v 1.5 0.1 0.9
v 1.5 0.1 1
v 1.5 0.1 1.1
v 1.5 0.1 1.5

# faces
f 9/1/1 2/1/1 1/1/1
f 10/3/1 3/3/1 2/3/1
f 10/1/1 2/1/1 9/1/1
f 11/2/1 4/2/1 3/2/1
f 11/3/1 3/3/1 10/3/1
f 12/3/1 5/3/1 4/3/1
f 12/2/1 4/2/1 11/2/1
f 13/1/1 6/1/1 5/1/1
f 13/3/1 5/3/1 12/3/1
f 14/3/1 7/3/1 6/3/1
f 14/1/1 6/1/1 13/1/1
f 15/2/1 8/2/1 7/2/1
f 15/3/1 7/3/1 14/3/1
f 16/2/1 8/2/1 15/2/1
f 17/2/2 18/2/2 24/2/2
f 18/1/2 19/1/2 25/1/2
f 24/2/2 18/2/2 25/2/2
f 19/3/2 20/3/2 26/3/2
f 25/1/2 19/1/2 26/1/2
f 20/1/2 21/1/2 27/1/2
f 26/3/2 20/3/2 27/3/2
f 21/3/2 22/3/2 28/3/2
f 27/1/2 21/1/2 28/1/2
f 22/2/2 23/2/2 29/2/2
f 28/3/2 22/3/2 29/3/2
f 29/2/2 23/2/2 30/2/2
f 33/1/3 32/1/3 31/1/3
f 34/1/3 32/1/3 33/1/3
f 35/3/3 34/3/3 33/3/3
f 36/3/3 34/3/3 35/3/3
f 37/2/3 36/2/3 35/2/3
f 38/2/3 36/2/3 37/2/3
f 39/1/3 38/1/3 37/1/3
f 40/1/3 38/1/3 39/1/3
f 41/3/3 40/3/3 39/3/3
f 42/3/3 40/3/3 41/3/3
f 43/2/3 42/2/3 41/2/3
f 44/2/3 42/2/3 43/2/3
f 45/1/3 44/1/3 43/1/3
f 46/1/3 44/1/3 45/1/3
f 47/3/3 46/3/3 45/3/3
f 48/3/3 46/3/3 47/3/3
f 49/2/3 48/2/3 47/2/3
f 50/2/3 48/2/3 49/2/3
f 51/2/4 52/2/4 53/2/4
f 53/2/4 52/2/4 54/2/4
f 53/1/4 54/1/4 55/1/4
f 55/1/4 54/1/4 56/1/4
f 55/3/4 56/3/4 57/3/4
f 57/3/4 56/3/4 58/3/4
f 57/2/4 58/2/4 59/2/4
f 59/2/4 58/2/4 60/2/4
f 59/1/4 60/1/4 61/1/4
f 61/1/4 60/1/4 62/1/4
f 61/3/4 62/3/4 63/3/4
f 63/3/4 62/3/4 64/3/4
f 63/2/4 64/2/4 65/2/4
f 65/2/4 64/2/4 66/2/4
f 77/1/5 68/1/5 67/1/5
f 78/3/5 69/3/5 68/3/5
f 78/1/5 68/1/5 77/1/5
f 79/2/5 70/2/5 69/2/5
f 79/3/5 69/3/5 78/3/5
f 80/2/5 70/2/5 79/2/5
f 81/3/5 78/3/5 77/3/5
f 82/1/5 79/1/5 78/1/5
f 82/3/5 78/3/5 81/3/5
f 83/1/5 71/1/5 70/1/5
f 83/3/5 72/3/5 71/3/5
f 84/2/5 73/2/5 72/2/5
f 84/3/5 72/3/5 83/3/5
f 85/1/5 74/1/5 73/1/5
f 85/2/5 73/2/5 84/2/5
f 86/2/5 70/2/5 80/2/5
f 87/1/5 83/1/5 70/1/5
f 87/2/5 70/2/5 86/2/5
f 87/1/5 84/1/5 83/1/5
f 87/1/5 85/1/5 84/1/5
f 88/1/5 74/1/5 85/1/5
f 88/1/5 85/1/5 87/1/5
f 89/1/5 79/1/5 82/1/5
f 89/3/5 80/3/5 79/3/5
f 90/2/5 86/2/5 80/2/5
f 90/3/5 80/3/5 89/3/5
f 91/1/5 87/1/5 86/1/5
f 91/2/5 86/2/5 90/2/5
f 92/1/5 87/1/5 91/1/5
f 93/1/5 87/1/5 92/1/5
f 94/3/5 88/3/5 87/3/5
f 94/1/5 87/1/5 93/1/5
f 95/1/5 74/1/5 88/1/5
f 95/3/5 88/3/5 94/3/5
f 96/2/5 82/2/5 81/2/5
f 97/1/5 90/1/5 89/1/5
f 97/2/5 82/2/5 96/2/5
f 97/1/5 89/1/5 82/1/5
f 97/1/5 91/1/5 90/1/5
f 98/1/5 91/1/5 97/1/5
f 99/3/5 92/3/5 91/3/5
f 99/1/5 91/1/5 98/1/5
f 100/1/5 93/1/5 92/1/5
f 100/3/5 92/3/5 99/3/5
f 101/3/5 94/3/5 93/3/5
f 102/2/5 95/2/5 94/2/5
f 102/3/5 94/3/5 101/3/5
f 103/1/5 77/1/5 67/1/5
f 103/3/5 81/3/5 77/3/5
f 104/2/5 96/2/5 81/2/5
f 104/3/5 81/3/5 103/3/5
f 105/1/5 98/1/5 97/1/5
f 105/2/5 96/2/5 104/2/5
f 105/1/5 97/1/5 96/1/5
f 106/3/5 99/3/5 98/3/5
f 106/1/5 98/1/5 105/1/5
f 107/2/5 100/2/5 99/2/5
f 107/3/5 99/3/5 106/3/5
f 108/2/5 95/2/5 102/2/5
f 108/1/5 74/1/5 95/1/5
f 108/2/5 102/2/5 101/2/5
f 109/3/5 75/3/5 74/3/5
f 109/1/5 74/1/5 108/1/5
f 110/2/5 76/2/5 75/2/5
f 110/3/5 75/3/5 109/3/5
f 111/2/5 76/2/5 110/2/5
f 112/2/5 76/2/5 111/2/5
f 113/1/5 103/1/5 67/1/5
f 113/1/5 105/1/5 104/1/5
f 113/1/5 104/1/5 103/1/5
f 114/1/5 105/1/5 113/1/5
f 115/3/5 106/3/5 105/3/5
f 116/2/5 107/2/5 106/2/5
f 116/3/5 106/3/5 115/3/5
f 117/2/5 109/2/5 108/2/5
f 117/2/5 108/2/5 101/2/5
f 118/1/5 110/1/5 109/1/5
f 118/2/5 109/2/5 117/2/5
f 119/2/5 111/2/5 110/2/5
f 119/1/5 110/1/5 118/1/5
f 120/1/5 112/1/5 111/1/5
f 120/2/5 111/2/5 119/2/5
f 121/1/5 112/1/5 120/1/5
f 122/3/5 114/3/5 113/3/5
f 123/1/5 105/1/5 114/1/5
f 123/3/5 114/3/5 122/3/5
f 124/2/5 117/2/5 101/2/5
f 125/1/5 118/1/5 117/1/5
f 125/2/5 117/2/5 124/2/5
f 126/3/5 119/3/5 118/3/5
f 126/1/5 118/1/5 125/1/5
f 127/1/5 120/1/5 119/1/5
f 127/3/5 119/3/5 126/3/5
f 128/1/5 120/1/5 127/1/5
f 129/2/5 107/2/5 116/2/5
f 129/2/5 100/2/5 107/2/5
f 129/2/5 116/2/5 115/2/5
f 130/1/5 93/1/5 100/1/5
f 130/2/5 100/2/5 129/2/5
f 131/2/5 124/2/5 101/2/5
f 132/1/5 125/1/5 124/1/5
f 132/2/5 124/2/5 131/2/5
f 133/3/5 128/3/5 127/3/5
f 133/2/5 127/2/5 126/2/5
f 134/1/5 120/1/5 128/1/5
f 134/3/5 128/3/5 133/3/5
f 135/2/5 129/2/5 115/2/5
f 136/1/5 130/1/5 129/1/5
f 136/2/5 129/2/5 135/2/5
f 137/1/5 93/1/5 130/1/5
f 137/1/5 130/1/5 136/1/5
f 138/3/5 101/3/5 93/3/5
f 138/1/5 93/1/5 137/1/5
f 139/2/5 131/2/5 101/2/5
f 139/3/5 101/3/5 138/3/5
f 140/1/5 132/1/5 131/1/5
f 140/2/5 131/2/5 139/2/5
f 141/1/5 125/1/5 132/1/5
f 141/1/5 132/1/5 140/1/5
f 142/3/5 126/3/5 125/3/5
f 142/1/5 125/1/5 141/1/5
f 143/2/5 133/2/5 126/2/5
f 143/3/5 126/3/5 142/3/5
f 143/2/5 134/2/5 133/2/5
f 144/1/5 105/1/5 123/1/5
f 144/2/5 123/2/5 122/2/5
f 145/3/5 115/3/5 105/3/5
f 145/1/5 105/1/5 144/1/5
f 146/2/5 135/2/5 115/2/5
f 146/3/5 115/3/5 145/3/5
f 147/1/5 136/1/5 135/1/5
f 147/2/5 135/2/5 146/2/5
f 148/3/5 137/3/5 136/3/5
f 148/1/5 136/1/5 147/1/5
f 149/1/5 140/1/5 139/1/5
f 149/3/5 137/3/5 148/3/5
f 149/1/5 138/1/5 137/1/5
f 149/1/5 139/1/5 138/1/5
f 149/1/5 141/1/5 140/1/5
f 150/1/5 141/1/5 149/1/5
f 151/1/5 141/1/5 150/1/5
f 152/1/5 141/1/5 151/1/5
f 153/1/5 147/1/5 146/1/5
f 153/1/5 146/1/5 145/1/5
f 154/3/5 148/3/5 147/3/5
f 154/1/5 147/1/5 153/1/5
f 155/2/5 149/2/5 148/2/5
f 155/3/5 148/3/5 154/3/5
f 155/2/5 150/2/5 149/2/5
f 156/1/5 151/1/5 150/1/5
f 156/2/5 150/2/5 155/2/5
f 157/1/5 151/1/5 156/1/5
f 158/3/5 152/3/5 151/3/5
f 159/1/5 141/1/5 152/1/5
f 159/3/5 152/3/5 158/3/5
f 160/3/5 154/3/5 153/3/5
f 161/2/5 155/2/5 154/2/5
f 161/3/5 154/3/5 160/3/5
f 161/2/5 156/2/5 155/2/5
f 161/2/5 157/2/5 156/2/5
f 162/2/5 144/2/5 122/2/5
f 162/2/5 145/2/5 144/2/5
f 163/2/5 145/2/5 162/2/5
f 164/2/5 145/2/5 163/2/5
f 165/1/5 153/1/5 145/1/5
f 165/2/5 145/2/5 164/2/5
f 166/3/5 160/3/5 153/3/5
f 166/1/5 153/1/5 165/1/5
f 167/2/5 161/2/5 160/2/5
f 167/3/5 160/3/5 166/3/5
f 168/1/5 120/1/5 134/1/5
f 168/2/5 143/2/5 142/2/5
f 168/2/5 134/2/5 143/2/5
f 169/3/5 121/3/5 120/3/5
f 169/1/5 120/1/5 168/1/5
f 170/3/5 121/3/5 169/3/5
f 171/2/5 161/2/5 167/2/5
f 171/2/5 157/2/5 161/2/5
f 171/2/5 167/2/5 166/2/5
f 172/1/5 151/1/5 157/1/5
f 172/2/5 157/2/5 171/2/5
f 173/3/5 158/3/5 151/3/5
f 173/1/5 151/1/5 172/1/5
f 174/2/5 159/2/5 158/2/5
f 174/3/5 158/3/5 173/3/5
f 175/1/5 141/1/5 159/1/5
f 175/2/5 159/2/5 174/2/5
f 176/3/5 142/3/5 141/3/5
f 176/1/5 141/1/5 175/1/5
f 177/2/5 169/2/5 168/2/5
f 177/3/5 142/3/5 176/3/5
f 177/2/5 168/2/5 142/2/5
f 178/2/5 169/2/5 177/2/5
f 179/1/5 175/1/5 174/1/5
f 179/1/5 172/1/5 171/1/5
f 179/1/5 176/1/5 175/1/5
f 179/1/5 177/1/5 176/1/5
f 179/1/5 173/1/5 172/1/5
f 179/1/5 174/1/5 173/1/5
f 180/1/5 177/1/5 179/1/5
f 181/2/5 171/2/5 166/2/5
f 182/1/5 179/1/5 171/1/5
f 182/2/5 171/2/5 181/2/5
f 183/3/5 180/3/5 179/3/5
f 183/1/5 179/1/5 182/1/5
f 184/1/5 177/1/5 180/1/5
f 184/3/5 180/3/5 183/3/5
f 185/3/5 163/3/5 162/3/5
f 186/2/5 164/2/5 163/2/5
f 186/3/5 163/3/5 185/3/5
f 187/1/5 165/1/5 164/1/5
f 187/2/5 164/2/5 186/2/5
f 188/2/5 169/2/5 178/2/5
f 189/1/5 170/1/5 169/1/5
f 189/2/5 169/2/5 188/2/5
f 190/1/5 186/1/5 185/1/5
f 190/1/5 187/1/5 186/1/5
f 191/1/5 165/1/5 187/1/5
f 191/1/5 187/1/5 190/1/5
f 192/3/5 166/3/5 165/3/5
f 192/1/5 165/1/5 191/1/5
f 193/2/5 181/2/5 166/2/5
f 193/3/5 166/3/5 192/3/5
f 194/2/5 181/2/5 193/2/5
f 195/1/5 182/1/5 181/1/5
f 195/2/5 181/2/5 194/2/5
f 196/3/5 183/3/5 182/3/5
f 196/1/5 182/1/5 195/1/5
f 197/2/5 184/2/5 183/2/5
f 197/3/5 183/3/5 196/3/5
f 198/2/5 188/2/5 178/2/5
f 199/1/5 189/1/5 188/1/5
f 199/2/5 188/2/5 198/2/5
f 200/1/5 170/1/5 189/1/5
f 200/1/5 189/1/5 199/1/5
f 201/3/5 191/3/5 190/3/5
f 202/1/5 192/1/5 191/1/5
f 202/3/5 191/3/5 201/3/5
f 202/1/5 193/1/5 192/1/5
f 203/2/5 194/2/5 193/2/5
f 203/1/5 193/1/5 202/1/5
f 204/2/5 194/2/5 203/2/5
f 205/3/5 178/3/5 177/3/5
f 205/2/5 198/2/5 178/2/5
f 206/1/5 199/1/5 198/1/5
f 206/2/5 198/2/5 205/2/5
f 207/3/5 200/3/5 199/3/5
f 207/1/5 199/1/5 206/1/5
f 208/3/5 200/3/5 207/3/5
f 209/2/5 202/2/5 201/2/5
f 209/1/5 204/1/5 203/1/5
f 209/2/5 203/2/5 202/2/5
f 210/2/5 194/2/5 204/2/5
f 210/1/5 204/1/5 209/1/5
f 211/1/5 195/1/5 194/1/5
f 211/2/5 194/2/5 210/2/5
f 212/3/5 196/3/5 195/3/5
f 212/1/5 195/1/5 211/1/5
f 213/2/5 197/2/5 196/2/5
f 213/3/5 196/3/5 212/3/5
f 214/2/5 184/2/5 197/2/5
f 214/2/5 197/2/5 213/2/5
f 215/3/5 205/3/5 177/3/5
f 215/1/5 177/1/5 184/1/5
f 216/1/5 206/1/5 205/1/5
f 216/3/5 205/3/5 215/3/5
f 217/3/5 207/3/5 206/3/5
f 217/1/5 206/1/5 216/1/5
f 218/2/5 208/2/5 207/2/5
f 218/3/5 207/3/5 217/3/5
f 219/1/5 213/1/5 212/1/5
f 219/1/5 214/1/5 213/1/5
f 219/1/5 211/1/5 210/1/5
f 219/1/5 212/1/5 211/1/5
f 220/2/5 184/2/5 214/2/5
f 220/1/5 214/1/5 219/1/5
f 221/1/5 216/1/5 215/1/5
f 221/2/5 184/2/5 220/2/5
f 221/1/5 215/1/5 184/1/5
f 222/3/5 220/3/5 219/3/5
f 223/1/5 221/1/5 220/1/5
f 223/3/5 220/3/5 222/3/5
f 224/1/5 221/1/5 223/1/5
f 225/1/5 221/1/5 224/1/5
f 226/1/5 216/1/5 221/1/5
f 226/1/5 221/1/5 225/1/5
f 227/1/5 225/1/5 224/1/5
f 227/2/5 223/2/5 222/2/5
f 227/2/5 224/2/5 223/2/5
f 228/1/5 225/1/5 227/1/5
f 229/3/5 226/3/5 225/3/5
f 230/1/5 216/1/5 226/1/5
f 230/3/5 226/3/5 229/3/5
f 231/1/5 219/1/5 210/1/5
f 231/3/5 222/3/5 219/3/5
f 232/2/5 227/2/5 222/2/5
f 232/3/5 222/3/5 231/3/5
f 232/2/5 228/2/5 227/2/5
f 233/1/5 225/1/5 228/1/5
f 233/2/5 228/2/5 232/2/5
f 234/2/5 209/2/5 201/2/5
f 234/2/5 210/2/5 209/2/5
f 235/1/5 233/1/5 232/1/5
f 235/2/5 210/2/5 234/2/5
f 235/1/5 232/1/5 231/1/5
f 235/1/5 231/1/5 210/1/5
f 236/1/5 225/1/5 233/1/5
f 236/1/5 233/1/5 235/1/5
f 236/3/5 229/3/5 225/3/5
f 237/2/5 230/2/5 229/2/5
f 237/3/5 229/3/5 236/3/5
f 238/1/5 216/1/5 230/1/5
f 238/2/5 230/2/5 237/2/5
f 239/3/5 217/3/5 216/3/5
f 239/1/5 216/1/5 238/1/5
f 240/2/5 218/2/5 217/2/5
f 240/3/5 217/3/5 239/3/5
f 241/2/5 208/2/5 218/2/5
f 241/2/5 218/2/5 240/2/5
f 242/1/6 243/1/6 252/1/6
f 243/3/6 244/3/6 253/3/6
f 252/1/6 243/1/6 253/1/6
f 244/2/6 245/2/6 254/2/6
f 253/3/6 244/3/6 254/3/6
f 254/2/6 245/2/6 255/2/6
f 252/3/6 253/3/6 256/3/6
f 253/1/6 254/1/6 257/1/6
f 256/3/6 253/3/6 257/3/6
f 245/1/6 246/1/6 258/1/6
f 246/3/6 247/3/6 258/3/6
f 247/2/6 248/2/6 259/2/6
f 258/3/6 247/3/6 259/3/6
f 248/1/6 249/1/6 260/1/6
f 259/2/6 248/2/6 260/2/6
f 255/2/6 245/2/6 261/2/6
f 245/1/6 258/1/6 262/1/6
f 261/2/6 245/2/6 262/2/6
f 258/1/6 259/1/6 262/1/6
f 259/1/6 260/1/6 262/1/6
f 260/1/6 249/1/6 263/1/6
f 262/1/6 260/1/6 263/1/6
f 257/1/6 254/1/6 264/1/6
f 254/3/6 255/3/6 264/3/6
f 255/2/6 261/2/6 265/2/6
f 264/3/6 255/3/6 265/3/6
f 261/1/6 262/1/6 266/1/6
f 265/2/6 261/2/6 266/2/6
f 266/1/6 262/1/6 267/1/6
f 267/1/6 262/1/6 268/1/6
f 262/3/6 263/3/6 269/3/6
f 268/1/6 262/1/6 269/1/6
f 263/1/6 249/1/6 270/1/6
f 269/3/6 263/3/6 270/3/6
f 256/2/6 257/2/6 271/2/6
f 264/1/6 265/1/6 272/1/6
f 271/2/6 257/2/6 272/2/6
f 257/1/6 264/1/6 272/1/6
f 265/1/6 266/1/6 272/1/6
f 272/1/6 266/1/6 273/1/6
f 266/3/6 267/3/6 274/3/6
f 273/1/6 266/1/6 274/1/6
f 267/1/6 268/1/6 275/1/6
f 274/3/6 267/3/6 275/3/6
f 268/3/6 269/3/6 276/3/6
f 269/2/6 270/2/6 277/2/6
f 276/3/6 269/3/6 277/3/6
f 242/1/6 252/1/6 278/1/6
f 252/3/6 256/3/6 278/3/6
f 256/2/6 271/2/6 279/2/6
f 278/3/6 256/3/6 279/3/6
f 272/1/6 273/1/6 280/1/6
f 279/2/6 271/2/6 280/2/6
f 271/1/6 272/1/6 280/1/6
f 273/3/6 274/3/6 281/3/6
f 280/1/6 273/1/6 281/1/6
f 274/2/6 275/2/6 282/2/6
f 281/3/6 274/3/6 282/3/6
f 277/2/6 270/2/6 283/2/6
f 270/1/6 249/1/6 283/1/6
f 276/2/6 277/2/6 283/2/6
f 249/3/6 250/3/6 284/3/6
f 283/1/6 249/1/6 284/1/6
f 250/2/6 251/2/6 285/2/6
f 284/3/6 250/3/6 285/3/6
f 285/2/6 251/2/6 286/2/6
f 286/2/6 251/2/6 287/2/6
f 242/1/6 278/1/6 288/1/6
f 279/1/6 280/1/6 288/1/6
f 278/1/6 279/1/6 288/1/6
f 288/1/6 280/1/6 289/1/6
f 280/3/6 281/3/6 290/3/6
f 281/2/6 282/2/6 291/2/6
f 290/3/6 281/3/6 291/3/6
f 283/2/6 284/2/6 292/2/6
f 276/2/6 283/2/6 292/2/6
f 284/1/6 285/1/6 293/1/6
f 292/2/6 284/2/6 293/2/6
f 285/2/6 286/2/6 294/2/6
f 293/1/6 285/1/6 294/1/6
f 286/1/6 287/1/6 295/1/6
f 294/2/6 286/2/6 295/2/6
f 295/1/6 287/1/6 296/1/6
f 288/3/6 289/3/6 297/3/6
f 289/1/6 280/1/6 298/1/6
f 297/3/6 289/3/6 298/3/6
f 276/2/6 292/2/6 299/2/6
f 292/1/6 293/1/6 300/1/6
f 299/2/6 292/2/6 300/2/6
f 293/3/6 294/3/6 301/3/6
f 300/1/6 293/1/6 301/1/6
f 294/1/6 295/1/6 302/1/6
f 301/3/6 294/3/6 302/3/6
f 302/1/6 295/1/6 303/1/6
f 291/2/6 282/2/6 304/2/6
f 282/2/6 275/2/6 304/2/6
f 290/2/6 291/2/6 304/2/6
f 275/1/6 268/1/6 305/1/6
f 304/2/6 275/2/6 305/2/6
f 276/2/6 299/2/6 306/2/6
f 299/1/6 300/1/6 307/1/6
f 306/2/6 299/2/6 307/2/6
f 302/3/6 303/3/6 308/3/6
f 301/2/6 302/2/6 308/2/6
f 303/1/6 295/1/6 309/1/6
f 308/3/6 303/3/6 309/3/6
f 290/2/6 304/2/6 310/2/6
f 304/1/6 305/1/6 311/1/6
f 310/2/6 304/2/6 311/2/6
f 305/1/6 268/1/6 312/1/6
f 311/1/6 305/1/6 312/1/6
f 268/3/6 276/3/6 313/3/6
f 312/1/6 268/1/6 313/1/6
f 276/2/6 306/2/6 314/2/6
f 313/3/6 276/3/6 314/3/6
f 306/1/6 307/1/6 315/1/6
f 314/2/6 306/2/6 315/2/6
f 307/1/6 300/1/6 316/1/6
f 315/1/6 307/1/6 316/1/6
f 300/3/6 301/3/6 317/3/6
f 316/1/6 300/1/6 317/1/6
f 301/2/6 308/2/6 318/2/6
f 317/3/6 301/3/6 318/3/6
f 308/2/6 309/2/6 318/2/6
f 298/1/6 280/1/6 319/1/6
f 297/2/6 298/2/6 319/2/6
f 280/3/6 290/3/6 320/3/6
f 319/1/6 280/1/6 320/1/6
f 290/2/6 310/2/6 321/2/6
f 320/3/6 290/3/6 321/3/6
f 310/1/6 311/1/6 322/1/6
f 321/2/6 310/2/6 322/2/6
f 311/3/6 312/3/6 323/3/6
f 322/1/6 311/1/6 323/1/6
f 314/1/6 315/1/6 324/1/6
f 323/3/6 312/3/6 324/3/6
f 312/1/6 313/1/6 324/1/6
f 313/1/6 314/1/6 324/1/6
f 315/1/6 316/1/6 324/1/6
f 324/1/6 316/1/6 325/1/6
f 325/1/6 316/1/6 326/1/6
f 326/1/6 316/1/6 327/1/6
f 321/1/6 322/1/6 328/1/6
f 320/1/6 321/1/6 328/1/6
f 322/3/6 323/3/6 329/3/6
f 328/1/6 322/1/6 329/1/6
f 323/2/6 324/2/6 330/2/6
f 329/3/6 323/3/6 330/3/6
f 324/2/6 325/2/6 330/2/6
f 325/1/6 326/1/6 331/1/6
f 330/2/6 325/2/6 331/2/6
f 331/1/6 326/1/6 332/1/6
f 326/3/6 327/3/6 333/3/6
f 327/1/6 316/1/6 334/1/6
f 333/3/6 327/3/6 334/3/6
f 328/3/6 329/3/6 335/3/6
f 329/2/6 330/2/6 336/2/6
f 335/3/6 329/3/6 336/3/6
f 330/2/6 331/2/6 336/2/6
f 331/2/6 332/2/6 336/2/6
f 297/2/6 319/2/6 337/2/6
f 319/2/6 320/2/6 337/2/6
f 337/2/6 320/2/6 338/2/6
f 338/2/6 320/2/6 339/2/6
f 320/1/6 328/1/6 340/1/6
f 339/2/6 320/2/6 340/2/6
f 328/3/6 335/3/6 341/3/6
f 340/1/6 328/1/6 341/1/6
f 335/2/6 336/2/6 342/2/6
f 341/3/6 335/3/6 342/3/6
f 309/1/6 295/1/6 343/1/6
f 317/2/6 318/2/6 343/2/6
f 318/2/6 309/2/6 343/2/6
f 295/3/6 296/3/6 344/3/6
f 343/1/6 295/1/6 344/1/6
f 344/3/6 296/3/6 345/3/6
f 342/2/6 336/2/6 346/2/6
f 336/2/6 332/2/6 346/2/6
f 341/2/6 342/2/6 346/2/6
f 332/1/6 326/1/6 347/1/6
f 346/2/6 332/2/6 347/2/6
f 326/3/6 333/3/6 348/3/6
f 347/1/6 326/1/6 348/1/6
f 333/2/6 334/2/6 349/2/6
f 348/3/6 333/3/6 349/3/6
f 334/1/6 316/1/6 350/1/6
f 349/2/6 334/2/6 350/2/6
f 316/3/6 317/3/6 351/3/6
f 350/1/6 316/1/6 351/1/6
f 343/2/6 344/2/6 352/2/6
f 351/3/6 317/3/6 352/3/6
f 317/2/6 343/2/6 352/2/6
f 352/2/6 344/2/6 353/2/6
f 349/1/6 350/1/6 354/1/6
f 346/1/6 347/1/6 354/1/6
f 350/1/6 351/1/6 354/1/6
f 351/1/6 352/1/6 354/1/6
f 347/1/6 348/1/6 354/1/6
f 348/1/6 349/1/6 354/1/6
f 354/1/6 352/1/6 355/1/6
f 341/2/6 346/2/6 356/2/6
f 346/1/6 354/1/6 357/1/6
f 356/2/6 346/2/6 357/2/6
f 354/3/6 355/3/6 358/3/6
f 357/1/6 354/1/6 358/1/6
f 355/1/6 352/1/6 359/1/6
f 358/3/6 355/3/6 359/3/6
f 337/3/6 338/3/6 360/3/6
f 338/2/6 339/2/6 361/2/6
f 360/3/6 338/3/6 361/3/6
f 339/1/6 340/1/6 362/1/6
f 361/2/6 339/2/6 362/2/6
f 353/2/6 344/2/6 363/2/6
f 344/1/6 345/1/6 364/1/6
f 363/2/6 344/2/6 364/2/6
f 360/1/6 361/1/6 365/1/6
f 361/1/6 362/1/6 365/1/6
f 362/1/6 340/1/6 366/1/6
f 365/1/6 362/1/6 366/1/6
f 340/3/6 341/3/6 367/3/6
f 366/1/6 340/1/6 367/1/6
f 341/2/6 356/2/6 368/2/6
f 367/3/6 341/3/6 368/3/6
f 368/2/6 356/2/6 369/2/6
f 356/1/6 357/1/6 370/1/6
f 369/2/6 356/2/6 370/2/6
f 357/3/6 358/3/6 371/3/6
f 370/1/6 357/1/6 371/1/6
f 358/2/6 359/2/6 372/2/6
f 371/3/6 358/3/6 372/3/6
f 353/2/6 363/2/6 373/2/6
f 363/1/6 364/1/6 374/1/6
f 373/2/6 363/2/6 374/2/6
f 364/1/6 345/1/6 375/1/6
f 374/1/6 364/1/6 375/1/6
f 365/3/6 366/3/6 376/3/6
f 366/1/6 367/1/6 377/1/6
f 376/3/6 366/3/6 377/3/6
f 367/1/6 368/1/6 377/1/6
f 368/2/6 369/2/6 378/2/6
f 377/1/6 368/1/6 378/1/6
f 378/2/6 369/2/6 379/2/6
f 352/3/6 353/3/6 380/3/6
f 353/2/6 373/2/6 380/2/6
f 373/1/6 374/1/6 381/1/6
f 380/2/6 373/2/6 381/2/6
f 374/3/6 375/3/6 382/3/6
f 381/1/6 374/1/6 382/1/6
f 382/3/6 375/3/6 383/3/6
f 376/2/6 377/2/6 384/2/6
f 378/1/6 379/1/6 384/1/6
f 377/2/6 378/2/6 384/2/6
f 379/2/6 369/2/6 385/2/6
f 384/1/6 379/1/6 385/1/6
f 369/1/6 370/1/6 386/1/6
f 385/2/6 369/2/6 386/2/6
f 370/3/6 371/3/6 387/3/6
f 386/1/6 370/1/6 387/1/6
f 371/2/6 372/2/6 388/2/6
f 387/3/6 371/3/6 388/3/6
f 372/2/6 359/2/6 389/2/6
f 388/2/6 372/2/6 389/2/6
f 352/3/6 380/3/6 390/3/6
f 359/1/6 352/1/6 390/1/6
f 380/1/6 381/1/6 391/1/6
f 390/3/6 380/3/6 391/3/6
f 381/3/6 382/3/6 392/3/6
f 391/1/6 381/1/6 392/1/6
f 382/2/6 383/2/6 393/2/6
f 392/3/6 382/3/6 393/3/6
f 387/1/6 388/1/6 394/1/6
f 388/1/6 389/1/6 394/1/6
f 385/1/6 386/1/6 394/1/6
f 386/1/6 387/1/6 394/1/6
f 389/2/6 359/2/6 395/2/6
f 394/1/6 389/1/6 395/1/6
f 390/1/6 391/1/6 396/1/6
f 395/2/6 359/2/6 396/2/6
f 359/1/6 390/1/6 396/1/6
f 394/3/6 395/3/6 397/3/6
f 395/1/6 396/1/6 398/1/6
f 397/3/6 395/3/6 398/3/6
f 398/1/6 396/1/6 399/1/6
f 399/1/6 396/1/6 400/1/6
f 396/1/6 391/1/6 401/1/6
f 400/1/6 396/1/6 401/1/6
f 399/1/6 400/1/6 402/1/6
f 397/2/6 398/2/6 402/2/6
f 398/2/6 399/2/6 402/2/6
f 402/1/6 400/1/6 403/1/6
f 400/3/6 401/3/6 404/3/6
f 401/1/6 391/1/6 405/1/6
f 404/3/6 401/3/6 405/3/6
f 385/1/6 394/1/6 406/1/6
f 394/3/6 397/3/6 406/3/6
f 397/2/6 402/2/6 407/2/6
f 406/3/6 397/3/6 407/3/6
f 402/2/6 403/2/6 407/2/6
f 403/1/6 400/1/6 408/1/6
f 407/2/6 403/2/6 408/2/6
f 376/2/6 384/2/6 409/2/6
f 384/2/6 385/2/6 409/2/6
f 407/1/6 408/1/6 410/1/6
f 409/2/6 385/2/6 410/2/6
f 406/1/6 407/1/6 410/1/6
f 385/1/6 406/1/6 410/1/6
f 408/1/6 400/1/6 411/1/6
f 410/1/6 408/1/6 411/1/6
f 400/3/6 404/3/6 411/3/6
f 404/2/6 405/2/6 412/2/6
f 411/3/6 404/3/6 412/3/6
f 405/1/6 391/1/6 413/1/6
f 412/2/6 405/2/6 413/2/6
f 391/3/6 392/3/6 414/3/6
f 413/1/6 391/1/6 414/1/6
f 392/2/6 393/2/6 415/2/6
f 414/3/6 392/3/6 415/3/6
f 393/2/6 383/2/6 416/2/6
f 415/2/6 393/2/6 416/2/6
