# MagicaVoxel @ Ephtracy

# group
o Mesh

# material
mtllib Terrain_Tile_Natural_Concrete01.mtl
usemtl palette

# normals
vn 0 0 -1
vn 0 0 1
vn -1 0 0
vn 1 0 0
vn 0 -1 0
vn 0 1 0

# texcoords
vt 0.880859 0.5
vt 0.884766 0.5
vt 0.888672 0.5

# verts
v -1.5 0 -1.5
v -1.4 0 -1.5
v 1.5 0 -1.5
v -1.5 0.1 -1.5
v -1.4 0.1 -1.5
v 1.5 0.1 -1.5
v -1.5 0 1.5
v 1.5 0 1.5
v -1.5 0.1 1.5
v 1.5 0.1 1.5
v -1.5 0 -1.5
v -1.5 0.1 -1.5
v -1.5 0 1.5
v -1.5 0.1 1.5
v 1.5 0 -1.5
v 1.5 0.1 -1.5
v 1.5 0 1.4
v 1.5 0.1 1.4
v 1.5 0 1.5
v 1.5 0.1 1.5
v -1.5 0 -1.5
v -1.5 0 1.5
v -1.4 0 -1.5
v -1.4 0 -1.4
v -1.4 0 1.4
v 1.4 0 -1.4
v 1.4 0 1.4
v 1.5 0 -1.5
v 1.5 0 1.4
v 1.5 0 1.5
v -1.5 0.1 -1.5
v -1.5 0.1 1.5
v -1.4 0.1 -1.5
v -1.4 0.1 -1.4
v -1.4 0.1 1.4
v 1.4 0.1 -1.4
v 1.4 0.1 1.4
v 1.5 0.1 -1.5
v 1.5 0.1 1.4
v 1.5 0.1 1.5

# faces
f 4/1/1 2/1/1 1/1/1
f 5/3/1 3/3/1 2/3/1
f 5/1/1 2/1/1 4/1/1
f 6/3/1 3/3/1 5/3/1
f 7/1/2 8/1/2 9/1/2
f 9/1/2 8/1/2 10/1/2
f 13/1/3 12/1/3 11/1/3
f 14/1/3 12/1/3 13/1/3
f 15/3/4 16/3/4 17/3/4
f 17/3/4 16/3/4 18/3/4
f 17/1/4 18/1/4 19/1/4
f 19/1/4 18/1/4 20/1/4
f 23/1/5 22/1/5 21/1/5
f 24/1/5 22/1/5 23/1/5
f 25/1/5 22/1/5 24/1/5
f 26/3/5 24/3/5 23/3/5
f 26/2/5 25/2/5 24/2/5
f 27/1/5 22/1/5 25/1/5
f 27/2/5 25/2/5 26/2/5
f 28/3/5 26/3/5 23/3/5
f 28/3/5 27/3/5 26/3/5
f 29/1/5 22/1/5 27/1/5
f 29/3/5 27/3/5 28/3/5
f 30/1/5 22/1/5 29/1/5
f 31/1/6 32/1/6 33/1/6
f 33/1/6 32/1/6 34/1/6
f 34/1/6 32/1/6 35/1/6
f 33/3/6 34/3/6 36/3/6
f 34/2/6 35/2/6 36/2/6
f 35/1/6 32/1/6 37/1/6
f 36/2/6 35/2/6 37/2/6
f 33/3/6 36/3/6 38/3/6
f 36/3/6 37/3/6 38/3/6
f 37/1/6 32/1/6 39/1/6
f 38/3/6 37/3/6 39/3/6
f 39/1/6 32/1/6 40/1/6
